<?xml version="1.0" encoding="UTF-8" standalone="no"?>
<svg
   height="40"
   viewBox="0 -960 640 800"
   width="32"
   fill="#5f6368"
   version="1.1"
   id="svg1"
   sodipodi:docname="empty-marker.svg"
   inkscape:version="1.3.2 (091e20ef0f, 2023-11-25)"
   xmlns:inkscape="http://www.inkscape.org/namespaces/inkscape"
   xmlns:sodipodi="http://sodipodi.sourceforge.net/DTD/sodipodi-0.dtd"
   xmlns="http://www.w3.org/2000/svg"
   xmlns:svg="http://www.w3.org/2000/svg">
  <defs
     id="defs1" />
  <sodipodi:namedview
     id="namedview1"
     pagecolor="#ffffff"
     bordercolor="#000000"
     borderopacity="0.25"
     inkscape:showpageshadow="2"
     inkscape:pageopacity="0.0"
     inkscape:pagecheckerboard="0"
     inkscape:deskcolor="#d1d1d1"
     inkscape:zoom="13.229167"
     inkscape:cx="15.987401"
     inkscape:cy="19.9937"
     inkscape:window-width="1536"
     inkscape:window-height="875"
     inkscape:window-x="0"
     inkscape:window-y="0"
     inkscape:window-maximized="1"
     inkscape:current-layer="svg1" />
  <path
     d="M 320,-239 C 408.66667,-319.66667 474.16667,-392.83333 516.5,-458.5 558.83333,-524.16667 580,-582 580,-632 580,-710.52667 554.90333,-774.82667 504.71,-824.9 454.51667,-874.96667 392.94667,-900 320,-900 c -72.94667,0 -134.51667,25.03333 -184.71,75.1 C 85.096667,-774.82667 60,-710.52667 60,-632 c 0,50 21.666667,107.83333 65,173.5 43.33333,65.66667 108.33333,138.83333 195,219.5 z m 0,79 C 212.66667,-251.33333 132.5,-336.16667 79.5,-414.5 26.5,-492.83333 0,-565.33333 0,-632 c 0,-100 32.166667,-179.66667 96.5,-239 64.33333,-59.33333 138.83333,-89 223.5,-89 84.66667,0 159.16667,29.66667 223.5,89 64.33333,59.33333 96.5,139 96.5,239 0,66.66667 -26.5,139.16667 -79.5,217.5 -53,78.33333 -133.16667,163.16667 -240.5,254.5 z"
     id="path1"
     sodipodi:nodetypes="csscscssccsssssssc" />
</svg>
