<?xml version="1.0" encoding="UTF-8" standalone="no"?>
<svg
   height="40"
   viewBox="0 -960 640 800"
   width="32"
   fill="#5f6368"
   version="1.1"
   id="svg1"
   sodipodi:docname="image-marker.svg"
   inkscape:version="1.3.2 (091e20ef0f, 2023-11-25)"
   xml:space="preserve"
   xmlns:inkscape="http://www.inkscape.org/namespaces/inkscape"
   xmlns:sodipodi="http://sodipodi.sourceforge.net/DTD/sodipodi-0.dtd"
   xmlns="http://www.w3.org/2000/svg"
   xmlns:svg="http://www.w3.org/2000/svg"><defs
     id="defs1" /><sodipodi:namedview
     id="namedview1"
     pagecolor="#ffffff"
     bordercolor="#000000"
     borderopacity="0.25"
     inkscape:showpageshadow="2"
     inkscape:pageopacity="0.0"
     inkscape:pagecheckerboard="0"
     inkscape:deskcolor="#d1d1d1"
     inkscape:zoom="13.229167"
     inkscape:cx="16.100787"
     inkscape:cy="20.144881"
     inkscape:window-width="1536"
     inkscape:window-height="875"
     inkscape:window-x="0"
     inkscape:window-y="0"
     inkscape:window-maximized="1"
     inkscape:current-layer="svg1"
     inkscape:export-bgcolor="#ffffffff" /><g
     id="g3"
     transform="translate(-160,-80)"><g
       id="g2"><path
         d="m 480.09,-490 q 28.91,0 49.41,-20.59 20.5,-20.59 20.5,-49.5 0,-28.91 -20.59,-49.41 -20.59,-20.5 -49.5,-20.5 -28.91,0 -49.41,20.59 -20.5,20.59 -20.5,49.5 0,28.91 20.59,49.41 20.59,20.5 49.5,20.5 z M 480,-159 Q 613,-280 676.5,-378.5 740,-477 740,-552 740,-669.79 664.71,-744.9 589.42,-820 480,-820 370.58,-820 295.29,-744.9 220,-669.79 220,-552 q 0,75 65,173.5 65,98.5 195,219.5 z m 0,79 Q 319,-217 239.5,-334.5 160,-452 160,-552 q 0,-150 96.5,-239 96.5,-89 223.5,-89 127,0 223.5,89 96.5,89 96.5,239 0,100 -79.5,217.5 Q 641,-217 480,-80 Z m 0,-480 z"
         id="path1" /><ellipse
         style="fill:#fcfcfc;fill-opacity:1;stroke-width:20"
         id="path2"
         cx="481.42322"
         cy="-552.1181"
         rx="82.618111"
         ry="86.379921" /></g></g><path
     d="m 180.86811,-449.62008 q -16.5,0 -28.25,-11.75 -11.75,-11.75 -11.75,-28.25 v -280 q 0,-16.5 11.75,-28.25 11.75,-11.75 28.25,-11.75 h 280 q 16.5,0 28.25,11.75 11.75,11.75 11.75,28.25 v 280 q 0,16.5 -11.75,28.25 -11.75,11.75 -28.25,11.75 z m 0,-40 h 280 v -280 h -280 z m 20,-40 h 240 l -75,-100 -60,80 -45,-60 z m -20,40 v -280 z"
     id="path1-5"
     style="stroke-width:0.5" /><path
     style="fill:#fefefe;stroke-width:0.0755906"
     d="M 14.649285,34.70131 C 8.8722013,29.168864 5.0519132,24.017034 3.6752469,19.90233 3.1862613,18.440806 3.0687352,17.711244 3.0750285,16.176378 3.09111,12.254269 4.3701439,9.1433099 7.0098859,6.6057317 8.8154037,4.8700913 10.779842,3.8241787 13.182051,3.3195277 14.319016,3.0806765 16.49424,2.9893294 17.660983,3.1314379 c 2.070525,0.2521885 3.860342,0.9041005 5.504988,2.005103 3.770821,2.5243619 5.785209,6.4212061 5.785209,11.1915151 0,1.735743 -0.514231,3.700087 -1.506336,5.754148 -1.530739,3.169255 -3.655858,6.050074 -7.250597,9.828942 -1.225211,1.287967 -3.995566,3.958978 -4.167813,4.018357 -0.03828,0.0132 -0.657995,-0.539492 -1.377149,-1.228193 z m 9.255375,-9.328114 c 0.473225,-0.233056 0.936329,-0.768483 1.078367,-1.246775 0.169696,-0.571428 0.169696,-14.6483438 0,-15.2197715 C 24.841622,8.4304877 24.379252,7.8941795 23.926773,7.6814896 23.586602,7.5215903 23.570331,7.5212597 16.040862,7.5212597 H 8.4958251 L 8.1046771,7.7161769 C 7.6774021,7.929097 7.2909103,8.3586713 7.1357572,8.7931029 6.9918635,9.1960081 6.9897854,23.831358 7.1335648,24.233589 c 0.2245561,0.62821 0.8245027,1.139442 1.4948519,1.273808 0.1809848,0.03628 3.6115833,0.06061 7.6235513,0.05408 l 7.294488,-0.01187 z"
     id="path3"
     transform="matrix(20,0,0,20,0,-960)" /><path
     style="fill:#fefefe;stroke-width:0.0755906"
     d="M 9.0708659,16.516535 V 9.5622045 h 6.9543301 6.954331 v 6.9543305 6.954331 H 16.025196 9.0708659 Z m 12.9996901,5.007874 c -0.001,-0.03118 -0.522647,-0.749401 -1.159135,-1.596043 l -1.15725,-1.539351 0.183923,-0.501594 c 0.251031,-0.684613 0.313578,-1.818153 0.138209,-2.504744 -0.463822,-1.815917 -1.842074,-3.072908 -3.60615,-3.288878 -1.395155,-0.170804 -2.958395,0.605903 -3.822947,1.89946 -0.727574,1.088606 -0.903826,2.825498 -0.404845,3.989575 l 0.144096,0.336163 -1.204252,1.606043 c -0.662339,0.883324 -1.2042525,1.617297 -1.2042525,1.631053 0,0.01375 2.7212595,0.02501 6.0472435,0.02501 3.325985,0 6.046396,-0.02551 6.04536,-0.05669 z"
     id="path4"
     transform="matrix(20,0,0,20,0,-960)" /></svg>
