<?xml version="1.0" encoding="UTF-8" standalone="no"?>
<svg
   height="40"
   viewBox="0 -960 640 800"
   width="32"
   fill="#5f6368"
   version="1.1"
   id="svg1"
   sodipodi:docname="location-marker.svg"
   inkscape:version="1.3.2 (091e20ef0f, 2023-11-25)"
   xmlns:inkscape="http://www.inkscape.org/namespaces/inkscape"
   xmlns:sodipodi="http://sodipodi.sourceforge.net/DTD/sodipodi-0.dtd"
   xmlns="http://www.w3.org/2000/svg"
   xmlns:svg="http://www.w3.org/2000/svg">
  <defs
     id="defs1" />
  <sodipodi:namedview
     id="namedview1"
     pagecolor="#ffffff"
     bordercolor="#000000"
     borderopacity="0.25"
     inkscape:showpageshadow="2"
     inkscape:pageopacity="0.0"
     inkscape:pagecheckerboard="0"
     inkscape:deskcolor="#d1d1d1"
     inkscape:zoom="55.011054"
     inkscape:cx="14.278948"
     inkscape:cy="14.06081"
     inkscape:window-width="2742"
     inkscape:window-height="1457"
     inkscape:window-x="0"
     inkscape:window-y="0"
     inkscape:window-maximized="1"
     inkscape:current-layer="svg1" />
  <path
     d="m 320.09,-570 q 28.91,0 49.41,-20.59 20.5,-20.59 20.5,-49.5 0,-28.91 -20.59,-49.41 -20.59,-20.5 -49.5,-20.5 -28.91,0 -49.41,20.59 -20.5,20.59 -20.5,49.5 0,28.91 20.59,49.41 20.59,20.5 49.5,20.5 z M 320,-239 Q 453,-360 516.5,-458.5 580,-557 580,-632 580,-749.79 504.71,-824.9 429.42,-900 320,-900 210.58,-900 135.29,-824.9 60,-749.79 60,-632 q 0,75 65,173.5 65,98.5 195,219.5 z m 0,79 Q 159,-297 79.5,-414.5 0,-532 0,-632 0,-782 96.5,-871 193,-960 320,-960 q 127,0 223.5,89 96.5,89 96.5,239 0,100 -79.5,217.5 Q 481,-297 320,-160 Z m 0,-480 z"
     id="path1" />
  <path
     style="fill:#fcfcfc;stroke-width:1.51181"
     d="m 279.71596,-279.18112 c -43.1345,-42.74448 -66.76188,-68.0701 -95.37832,-102.23384 -64.46464,-76.961 -102.7381,-143.67404 -118.50036,-206.55356 -3.29716,-13.15322 -3.59412,-17.35284 -3.52764,-49.88976 0.068,-32.85042 0.3864,-37.00852 4.23722,-55.1811 5.66492,-26.73354 11.35654,-43.28704 22.87154,-66.51968 34.62082,-69.85086 103.73816,-121.35925 181.93498,-135.58364 25.23928,-4.59115 72.05394,-4.59115 97.2932,0 50.88966,9.25708 96.22532,32.85112 133.2837,69.36488 38.2076,37.64608 59.95158,77.87938 71.32958,131.98254 5.35512,25.46388 6.90662,71.88838 3.12694,93.56526 -11.80516,67.70394 -53.56398,142.58358 -128.6667,230.7182 -18.0456,21.17688 -124.60262,129.25984 -127.43492,129.25984 -0.7066,0 -18.96284,-17.51812 -40.56922,-38.92914 z m 69.34606,-296.2424 c 23.12766,-10.89746 38.78878,-32.94294 41.3456,-58.2004 3.34772,-33.0703 -19.50094,-66.13554 -51.44968,-74.45496 -26.26208,-6.8386 -52.79776,0.7848 -70.7686,20.33084 -19.3904,21.0901 -24.35318,52.5402 -12.30842,78.00074 4.7965,10.13894 18.28844,25.02164 27.66492,30.51662 13.31912,7.80554 20.5993,9.50338 38.72186,9.03044 15.04036,-0.3924 17.60148,-0.8918 26.79432,-5.22328 z"
     id="path2" />
  <path
     style="fill:#ffffff;fill-opacity:1;stroke-width:0.0755906"
     d="m 15.1937,19.357906 c -0.59645,-0.148032 -1.164691,-0.479008 -1.642183,-0.9565 -1.343967,-1.343966 -1.336461,-3.479455 0.01699,-4.832902 1.373855,-1.373856 3.489264,-1.365563 4.869311,0.01909 0.548821,0.550653 0.834937,1.101781 0.964635,1.858121 0.114756,0.669208 0.0086,1.436675 -0.280559,2.02762 -0.259872,0.531159 -0.974891,1.297904 -1.453021,1.558134 -0.745503,0.405754 -1.666294,0.527193 -2.47517,0.32644 z"
     id="path11"
     transform="matrix(20,0,0,20,0,-960)" />
  <path
     style="fill:#ffffff;fill-opacity:1;stroke-width:0.0755906"
     d="M 13.768416,33.807873 C 11.762143,31.804998 10.646547,30.626095 9.7447777,29.555905 9.214927,28.927096 9.0717007,28.758603 8.8452022,28.497637 8.7369509,28.372913 8.4032832,27.952685 8.1037183,27.563799 6.5703736,25.573254 5.3912119,23.74123 4.6422476,22.185826 4.4720838,21.83244 4.2648235,21.390236 4.1816691,21.203149 4.0985147,21.016062 3.9997087,20.79496 3.9621,20.711811 3.8047284,20.363875 3.3667748,18.920321 3.2562486,18.385229 3.1152358,17.702543 3.0891782,14.74227 3.2171766,13.946456 3.5238208,12.039936 4.2098627,10.251481 5.2179104,8.7307084 5.4245951,8.4188974 5.6107085,8.1467714 5.6314959,8.125984 5.6522833,8.1051966 5.8390085,7.8840943 6.0464408,7.6346455 6.5210702,7.0638773 7.222958,6.3635732 7.7116297,5.9732136 7.9187372,5.8077725 8.129528,5.6376937 8.1800537,5.5952608 8.382597,5.4251593 8.4749257,5.3623974 8.6727396,5.2603504 8.7863686,5.2017322 8.946521,5.091181 9.028634,5.0146811 c 0.082113,-0.0765 0.1823047,-0.1390907 0.2226483,-0.1390907 0.040344,0 0.1183622,-0.04252 0.1733748,-0.094488 0.1001256,-0.094585 1.2423929,-0.6748051 1.3847919,-0.7034115 0.04157,-0.00835 0.211653,-0.07578 0.377952,-0.1498414 0.1663,-0.074061 0.327874,-0.1419827 0.359055,-0.1509377 0.03118,-0.00895 0.0652,-0.023136 0.07559,-0.031514 0.01039,-0.00838 0.06992,-0.025518 0.132283,-0.038089 0.06236,-0.012571 0.351496,-0.092304 0.64252,-0.1771848 1.887495,-0.5505121 4.650358,-0.615801 6.651968,-0.1571918 1.265424,0.2899339 2.520152,0.7748106 3.401575,1.314503 0.166299,0.1018244 0.353386,0.2096092 0.415748,0.2395216 0.06236,0.029913 0.179327,0.1156313 0.259923,0.1904863 0.08059,0.074855 0.176568,0.1361 0.213273,0.1361 0.03671,0 0.11415,0.04252 0.1721,0.094488 0.124268,0.1114422 0.189513,0.1630832 0.639743,0.5063555 0.804685,0.6135213 2.311405,2.2903797 2.856165,3.1786837 0.528213,0.861319 1.075716,2.1152727 1.420599,3.2536137 0.415879,1.372672 0.622094,4.127591 0.415637,5.552686 -0.206091,1.42257 -1.022016,3.699378 -1.851835,5.167478 -0.148768,0.263198 -0.270487,0.491933 -0.270487,0.508302 0,0.01637 -0.147407,0.259729 -0.32757,0.540802 -0.180163,0.281074 -0.341738,0.545044 -0.359055,0.5866 -0.055,0.131994 -0.933044,1.429523 -1.070855,1.582459 -0.07276,0.08074 -0.132284,0.171975 -0.132284,0.20274 0,0.03077 -0.04364,0.100888 -0.09698,0.155825 -0.05334,0.05494 -0.179777,0.218943 -0.280977,0.364455 -0.101201,0.145512 -0.219137,0.305906 -0.26208,0.356432 -0.08701,0.102374 -0.07101,0.08212 -0.643753,0.815221 -0.227363,0.291024 -0.43238,0.546142 -0.455595,0.566929 -0.02322,0.02079 -0.117073,0.135292 -0.208573,0.254453 -0.221242,0.288128 -1.029443,1.196554 -1.453621,1.633886 -1.957508,2.018208 -5.340106,5.368354 -5.420357,5.368354 -0.05615,0 -1.064668,-0.960945 -2.241148,-2.135433 z m 2.907553,-14.344872 c 2.241208,-0.425036 3.50611,-2.966831 2.496157,-5.015977 -0.371162,-0.753069 -1.185068,-1.49568 -1.925654,-1.756974 -1.737709,-0.613099 -3.677974,0.182331 -4.443909,1.821824 -0.502058,1.074659 -0.406692,2.47043 0.231939,3.394676 0.866656,1.25425 2.209183,1.828079 3.641467,1.556451 z"
     id="path12"
     transform="matrix(20,0,0,20,0,-960)" />
  <path
     style="fill:#ffffff;fill-opacity:1;stroke-width:0.0179792"
     d="m 15.569977,19.468177 c -0.64551,-0.08241 -1.249703,-0.340519 -1.751079,-0.748069 -0.306073,-0.248796 -0.615489,-0.600742 -0.822824,-0.935924 -0.635501,-1.027363 -0.649034,-2.462895 -0.03309,-3.50948 0.432847,-0.735469 1.126972,-1.314155 1.895762,-1.580478 0.50457,-0.174792 1.124118,-0.228065 1.68068,-0.144517 0.663334,0.09958 1.262669,0.385664 1.781363,0.850317 0.832531,0.745794 1.231626,1.72793 1.157566,2.848663 -0.0576,0.871697 -0.399221,1.604283 -1.043228,2.237162 -0.296734,0.291607 -0.533303,0.465681 -0.864242,0.635935 -0.505715,0.260168 -0.954924,0.360757 -1.589698,0.355971 -0.196502,-0.0015 -0.381548,-0.0058 -0.411214,-0.0096 z m 0.970876,-0.0502 c 0.25506,-0.03952 0.547001,-0.121007 0.796586,-0.222335 0.411283,-0.166976 0.618013,-0.310746 1.011469,-0.703422 0.50452,-0.503521 0.762247,-0.886599 0.926275,-1.376789 0.371611,-1.110543 0.151464,-2.385052 -0.559164,-3.237195 -0.532701,-0.638784 -1.209387,-1.073704 -1.943539,-1.249153 -0.512489,-0.122475 -1.094973,-0.118347 -1.610325,0.01141 -0.972507,0.244867 -1.832905,0.953938 -2.278424,1.877695 -0.697279,1.445767 -0.306475,3.139108 0.959697,4.158339 0.53827,0.433291 1.097669,0.678374 1.735539,0.760371 0.23167,0.02978 0.708045,0.02041 0.961886,-0.01892 z"
     id="path13"
     transform="matrix(20,0,0,20,0,-960)" />
  <path
     style="fill:#ffffff;fill-opacity:1;stroke-width:0.00390625"
     d=""
     id="path14"
     transform="matrix(20,0,0,20,0,-960)" />
  <path
     style="fill:#ffffff;fill-opacity:1;stroke-width:0.00390625"
     d=""
     id="path15"
     transform="matrix(20,0,0,20,0,-960)" />
  <path
     style="fill:#ffffff;fill-opacity:1;stroke-width:0.0181782"
     d="m 15.55142,19.414189 c -0.716627,-0.09798 -1.369437,-0.424436 -1.924543,-0.96242 -0.637983,-0.618306 -0.983299,-1.340068 -1.058127,-2.211646 -0.08133,-0.947301 0.294797,-1.944298 1.00086,-2.652976 0.532613,-0.534586 1.147785,-0.857364 1.890919,-0.992158 0.246308,-0.04468 0.815315,-0.04435 1.063423,6.18e-4 0.709276,0.128541 1.313292,0.437415 1.831538,0.936589 0.247025,0.237933 0.401147,0.417267 0.548033,0.637683 0.279503,0.419419 0.462976,0.95713 0.521066,1.527111 0.05482,0.537907 -0.05954,1.224311 -0.284013,1.704672 -0.216181,0.462616 -0.741836,1.085511 -1.225192,1.45184 -0.177102,0.134223 -0.547108,0.322336 -0.793321,0.403329 -0.503004,0.165465 -1.084935,0.223767 -1.570643,0.157358 z"
     id="path16"
     transform="matrix(20,0,0,20,0,-960)" />
  <path
     style="fill:#ffffff;fill-opacity:1;stroke-width:0.0181782"
     d="m 15.55142,19.415413 c -0.730146,-0.105001 -1.365247,-0.423132 -1.924543,-0.964031 -0.319282,-0.308779 -0.527368,-0.587995 -0.710575,-0.953469 -0.657339,-1.311311 -0.390267,-2.875201 0.67079,-3.927933 1.215522,-1.205985 2.985098,-1.352668 4.385754,-0.363543 0.188466,0.133092 0.565673,0.488798 0.724914,0.683593 0.417118,0.51025 0.654937,1.101585 0.726869,1.807356 0.05442,0.533932 -0.06166,1.234812 -0.281666,1.700636 -0.166355,0.352234 -0.427737,0.701604 -0.808546,1.080724 -0.316346,0.314943 -0.513385,0.462694 -0.810666,0.607883 -0.324479,0.158472 -0.588232,0.243501 -0.963443,0.310596 -0.225118,0.04026 -0.785217,0.05035 -1.008888,0.01819 z"
     id="path17"
     transform="matrix(20,0,0,20,0,-960)" />
  <path
     style="fill:#ffffff;fill-opacity:1;stroke-width:0.0181782"
     d=""
     id="path18"
     transform="matrix(20,0,0,20,0,-960)" />
  <rect
     style="fill:#ffffff;fill-opacity:1;stroke-width:20"
     id="rect18"
     width="180.76906"
     height="181.54306"
     x="226.05969"
     y="-733.43475" />
</svg>
