<?xml version="1.0" encoding="UTF-8" standalone="no"?>
<svg
   height="40"
   viewBox="0 -960 640 800"
   width="32"
   fill="#5f6368"
   version="1.1"
   id="svg1"
   sodipodi:docname="message-marker.svg"
   inkscape:version="1.3.2 (091e20ef0f, 2023-11-25)"
   xml:space="preserve"
   xmlns:inkscape="http://www.inkscape.org/namespaces/inkscape"
   xmlns:sodipodi="http://sodipodi.sourceforge.net/DTD/sodipodi-0.dtd"
   xmlns="http://www.w3.org/2000/svg"
   xmlns:svg="http://www.w3.org/2000/svg"><defs
     id="defs1" /><sodipodi:namedview
     id="namedview1"
     pagecolor="#ffffff"
     bordercolor="#000000"
     borderopacity="0.25"
     inkscape:showpageshadow="2"
     inkscape:pageopacity="0.0"
     inkscape:pagecheckerboard="0"
     inkscape:deskcolor="#d1d1d1"
     inkscape:zoom="13.229167"
     inkscape:cx="16.100787"
     inkscape:cy="20.069291"
     inkscape:window-width="2742"
     inkscape:window-height="1457"
     inkscape:window-x="0"
     inkscape:window-y="0"
     inkscape:window-maximized="1"
     inkscape:current-layer="svg1" /><g
     id="g3"
     transform="translate(-160,-80)"><g
       id="g2"><path
         d="m 480.09,-490 q 28.91,0 49.41,-20.59 20.5,-20.59 20.5,-49.5 0,-28.91 -20.59,-49.41 -20.59,-20.5 -49.5,-20.5 -28.91,0 -49.41,20.59 -20.5,20.59 -20.5,49.5 0,28.91 20.59,49.41 20.59,20.5 49.5,20.5 z M 480,-159 Q 613,-280 676.5,-378.5 740,-477 740,-552 740,-669.79 664.71,-744.9 589.42,-820 480,-820 370.58,-820 295.29,-744.9 220,-669.79 220,-552 q 0,75 65,173.5 65,98.5 195,219.5 z m 0,79 Q 319,-217 239.5,-334.5 160,-452 160,-552 q 0,-150 96.5,-239 96.5,-89 223.5,-89 127,0 223.5,89 96.5,89 96.5,239 0,100 -79.5,217.5 Q 641,-217 480,-80 Z m 0,-480 z"
         id="path1" /><ellipse
         style="fill:#fcfcfc;fill-opacity:1;stroke-width:20"
         id="path2"
         cx="481.42322"
         cy="-552.1181"
         rx="82.618111"
         ry="86.379921" /></g><g
       style="fill:#5f6368"
       id="g1"
       transform="matrix(0.42861712,0,0,0.4054749,291.02951,-345.94982)"><path
         d="m 280,-400 q 17,0 28.5,-11.5 Q 320,-423 320,-440 320,-457 308.5,-468.5 297,-480 280,-480 q -17,0 -28.5,11.5 -11.5,11.5 -11.5,28.5 0,17 11.5,28.5 11.5,11.5 28.5,11.5 z m 0,-120 q 17,0 28.5,-11.5 Q 320,-543 320,-560 320,-577 308.5,-588.5 297,-600 280,-600 q -17,0 -28.5,11.5 -11.5,11.5 -11.5,28.5 0,17 11.5,28.5 11.5,11.5 28.5,11.5 z m 0,-120 q 17,0 28.5,-11.5 Q 320,-663 320,-680 320,-697 308.5,-708.5 297,-720 280,-720 q -17,0 -28.5,11.5 -11.5,11.5 -11.5,28.5 0,17 11.5,28.5 11.5,11.5 28.5,11.5 z m 120,240 h 200 v -80 H 400 Z m 0,-120 h 320 v -80 H 400 Z m 0,-120 h 320 v -80 H 400 Z M 80,-80 v -720 q 0,-33 23.5,-56.5 Q 127,-880 160,-880 h 640 q 33,0 56.5,23.5 23.5,23.5 23.5,56.5 v 480 q 0,33 -23.5,56.5 Q 833,-240 800,-240 H 240 Z M 206,-320 H 800 V -800 H 160 v 525 z m -46,0 v -480 z"
         id="path1-2" /></g></g><path
     style="fill:#fcfcfc;stroke-width:1.51181"
     d="m 279.71596,-279.18112 c -43.1345,-42.74448 -66.76188,-68.0701 -95.37832,-102.23384 -64.46464,-76.961 -102.7381,-143.67404 -118.50036,-206.55356 -3.29716,-13.15322 -3.59412,-17.35284 -3.52764,-49.88976 0.068,-32.85042 0.3864,-37.00852 4.23722,-55.1811 5.66492,-26.73354 11.35654,-43.28704 22.87154,-66.51968 34.62082,-69.85086 103.73816,-121.35925 181.93498,-135.58364 25.23928,-4.59115 72.05394,-4.59115 97.2932,0 50.88966,9.25708 96.22532,32.85112 133.2837,69.36488 38.2076,37.64608 59.95158,77.87938 71.32958,131.98254 5.35512,25.46388 6.90662,71.88838 3.12694,93.56526 -11.80516,67.70394 -53.56398,142.58358 -128.6667,230.7182 -18.0456,21.17688 -124.60262,129.25984 -127.43492,129.25984 -0.7066,0 -18.96284,-17.51812 -40.56922,-38.92914 z m -79.14904,-211.27558 34.01574,-32.3786 124.17382,-0.062 124.17382,-0.062 8.0863,-4.22434 c 5.88642,-3.0751 9.32652,-6.23004 12.64508,-11.59694 l 4.55878,-7.37262 0.4544,-103.67864 c 0.3276,-74.74726 -0.03,-105.36612 -1.2812,-109.72588 -2.5034,-8.72218 -8.1182,-15.37626 -16.6025,-19.67558 l -7.41504,-3.7575 -146.31798,0.034 c -138.91348,0.032 -146.624,0.174 -152.36522,2.81874 -7.41524,3.41566 -13.17378,8.69554 -16.86164,15.46004 -2.65378,4.86774 -2.812,12.58174 -3.19828,155.92424 -0.2236,82.94174 0.116,150.77494 0.7558,150.74046 0.6392,-0.034 16.46938,-14.63302 35.17804,-32.44124 z"
     id="path3" /><path
     style="fill:#fcfcfc;stroke-width:0.0755906"
     d="M 14.173228,34.216975 C 11.96044,32.020863 10.998924,31.014384 9.9779525,29.825514 9.7700785,29.583455 9.5364778,29.313218 9.45884,29.224987 8.5305735,28.170061 7.0806175,26.262113 6.3497631,25.133858 5.6251076,24.015172 5.576619,23.938314 5.3721379,23.584251 5.172297,23.238224 4.1611105,21.191966 4.0367282,20.881889 3.9992048,20.788346 3.9379998,20.635275 3.9007171,20.541732 3.6208312,19.839491 3.4529878,19.273521 3.2511004,18.351218 3.0907146,17.618511 3.0896036,14.63914 3.2493733,13.719685 3.482806,12.376308 3.8474345,11.268843 4.4564366,10.053543 4.5918554,9.7833068 4.7752869,9.4431494 4.8640621,9.2976376 4.9528374,9.1521258 5.0487948,8.982047 5.0773009,8.9196848 5.1058069,8.8573226 5.150864,8.7892911 5.1774278,8.7685037 5.2039916,8.7477163 5.3410086,8.5613683 5.4819101,8.3543971 5.8610033,7.7975442 5.9717831,7.671468 6.8449505,6.8031494 7.6404174,6.0120999 7.7836137,5.8881091 8.4283462,5.4321178 8.6154329,5.2997995 8.7855116,5.1714744 8.806299,5.1469506 8.89212,5.0457048 11.074854,3.912529 11.225197,3.8911696 c 0.02079,-0.00295 0.360944,-0.1118672 0.755905,-0.2420308 1.331144,-0.4386932 2.097139,-0.5454559 3.954883,-0.5512228 1.225622,-0.0038 2.12674,0.059298 2.810471,0.1968076 0.433179,0.08712 1.588765,0.4216669 1.825597,0.5285183 0.131008,0.059107 0.272818,0.1074667 0.315134,0.1074667 0.04232,0 0.173239,0.049702 0.290939,0.1104486 0.117699,0.060747 0.401086,0.1984951 0.629747,0.3061074 0.550506,0.2590783 1.415534,0.7801374 1.851969,1.1155538 2.483611,1.9087469 4.004647,4.1043095 4.754777,6.8633496 0.266076,0.978649 0.377748,1.590628 0.461189,2.527375 0.04056,0.45532 0.04757,2.508475 0.0093,2.72126 -0.01496,0.08315 -0.0698,0.389291 -0.121879,0.680315 -0.273681,1.529471 -1.075786,3.577166 -2.102285,5.366929 -0.566622,0.987939 -2.536027,3.873713 -2.811491,4.119685 -0.02328,0.02079 -0.160013,0.190866 -0.303852,0.377952 -0.617117,0.802664 -1.982391,2.371585 -2.330791,2.678457 -0.09753,0.0859 -0.845876,0.853448 -1.662992,1.705654 -1.362281,1.420782 -3.470961,3.478098 -3.563539,3.476739 -0.02126,-3.12e-4 -0.838033,-0.793914 -1.815041,-1.763559 z m -4.129849,-10.765007 1.700109,-1.606299 6.222744,-7.09e-4 6.222744,-7.1e-4 0.40098,-0.22995 c 0.264111,-0.15146 0.477634,-0.350819 0.625545,-0.584051 L 25.440064,20.67615 25.419244,15.30164 25.398425,9.9271304 25.17529,9.6051972 C 25.051827,9.4270684 24.781702,9.1854945 24.570565,9.0643885 L 24.188976,8.8455129 16.932283,8.8452252 C 12.372043,8.8450444 9.5754466,8.8727572 9.4060834,8.9198052 9.0549567,9.0173472 8.5607736,9.444461 8.3814505,9.8053777 8.2457664,10.078464 8.2383234,10.429446 8.2161255,17.601448 c -0.015345,4.957881 0.00231,7.501055 0.05195,7.483465 0.041357,-0.01466 0.8402437,-0.749481 1.7753035,-1.632945 z"
     id="path4"
     transform="matrix(20,0,0,20,0,-960)" /></svg>
