<?xml version="1.0" encoding="UTF-8" standalone="no"?>
<svg
   height="40"
   viewBox="0 -960 640 800"
   width="32"
   fill="#5f6368"
   version="1.1"
   id="svg1"
   sodipodi:docname="message-marker.svg"
   inkscape:version="1.3.2 (091e20ef0f, 2023-11-25)"
   xml:space="preserve"
   xmlns:inkscape="http://www.inkscape.org/namespaces/inkscape"
   xmlns:sodipodi="http://sodipodi.sourceforge.net/DTD/sodipodi-0.dtd"
   xmlns="http://www.w3.org/2000/svg"
   xmlns:svg="http://www.w3.org/2000/svg"><defs
     id="defs1" /><sodipodi:namedview
     id="namedview1"
     pagecolor="#ffffff"
     bordercolor="#000000"
     borderopacity="0.25"
     inkscape:showpageshadow="2"
     inkscape:pageopacity="0.0"
     inkscape:pagecheckerboard="0"
     inkscape:deskcolor="#d1d1d1"
     inkscape:zoom="13.229167"
     inkscape:cx="16.100787"
     inkscape:cy="20.069291"
     inkscape:window-width="2742"
     inkscape:window-height="1457"
     inkscape:window-x="0"
     inkscape:window-y="0"
     inkscape:window-maximized="1"
     inkscape:current-layer="svg1" /><g
     id="g3"
     transform="translate(-160,-80)"><g
       id="g2"><path
         d="m 480.09,-490 q 28.91,0 49.41,-20.59 20.5,-20.59 20.5,-49.5 0,-28.91 -20.59,-49.41 -20.59,-20.5 -49.5,-20.5 -28.91,0 -49.41,20.59 -20.5,20.59 -20.5,49.5 0,28.91 20.59,49.41 20.59,20.5 49.5,20.5 z M 480,-159 Q 613,-280 676.5,-378.5 740,-477 740,-552 740,-669.79 664.71,-744.9 589.42,-820 480,-820 370.58,-820 295.29,-744.9 220,-669.79 220,-552 q 0,75 65,173.5 65,98.5 195,219.5 z m 0,79 Q 319,-217 239.5,-334.5 160,-452 160,-552 q 0,-150 96.5,-239 96.5,-89 223.5,-89 127,0 223.5,89 96.5,89 96.5,239 0,100 -79.5,217.5 Q 641,-217 480,-80 Z m 0,-480 z"
         id="path1" /><ellipse
         style="fill:#fcfcfc;fill-opacity:1;stroke-width:20"
         id="path2"
         cx="481.42322"
         cy="-552.1181"
         rx="82.618111"
         ry="86.379921" /></g><g
       style="fill:#5f6368"
       id="g1"
       transform="matrix(0.42861712,0,0,0.4054749,291.02951,-345.94982)"><path
         d="m 280,-400 q 17,0 28.5,-11.5 Q 320,-423 320,-440 320,-457 308.5,-468.5 297,-480 280,-480 q -17,0 -28.5,11.5 -11.5,11.5 -11.5,28.5 0,17 11.5,28.5 11.5,11.5 28.5,11.5 z m 0,-120 q 17,0 28.5,-11.5 Q 320,-543 320,-560 320,-577 308.5,-588.5 297,-600 280,-600 q -17,0 -28.5,11.5 -11.5,11.5 -11.5,28.5 0,17 11.5,28.5 11.5,11.5 28.5,11.5 z m 0,-120 q 17,0 28.5,-11.5 Q 320,-663 320,-680 320,-697 308.5,-708.5 297,-720 280,-720 q -17,0 -28.5,11.5 -11.5,11.5 -11.5,28.5 0,17 11.5,28.5 11.5,11.5 28.5,11.5 z m 120,240 h 200 v -80 H 400 Z m 0,-120 h 320 v -80 H 400 Z m 0,-120 h 320 v -80 H 400 Z M 80,-80 v -720 q 0,-33 23.5,-56.5 Q 127,-880 160,-880 h 640 q 33,0 56.5,23.5 23.5,23.5 23.5,56.5 v 480 q 0,33 -23.5,56.5 Q 833,-240 800,-240 H 240 Z M 206,-320 H 800 V -800 H 160 v 525 z m -46,0 v -480 z"
         id="path1-2" /></g></g><path
     style="fill:#fcfcfc;stroke-width:1.51181"
     d="m 279.71596,-279.18112 c -43.1345,-42.74448 -66.76188,-68.0701 -95.37832,-102.23384 -64.46464,-76.961 -102.7381,-143.67404 -118.50036,-206.55356 -3.29716,-13.15322 -3.59412,-17.35284 -3.52764,-49.88976 0.068,-32.85042 0.3864,-37.00852 4.23722,-55.1811 5.66492,-26.73354 11.35654,-43.28704 22.87154,-66.51968 34.62082,-69.85086 103.73816,-121.35925 181.93498,-135.58364 25.23928,-4.59115 72.05394,-4.59115 97.2932,0 50.88966,9.25708 96.22532,32.85112 133.2837,69.36488 38.2076,37.64608 59.95158,77.87938 71.32958,131.98254 5.35512,25.46388 6.90662,71.88838 3.12694,93.56526 -11.80516,67.70394 -53.56398,142.58358 -128.6667,230.7182 -18.0456,21.17688 -124.60262,129.25984 -127.43492,129.25984 -0.7066,0 -18.96284,-17.51812 -40.56922,-38.92914 z m -79.14904,-211.27558 34.01574,-32.3786 124.17382,-0.062 124.17382,-0.062 8.0863,-4.22434 c 5.88642,-3.0751 9.32652,-6.23004 12.64508,-11.59694 l 4.55878,-7.37262 0.4544,-103.67864 c 0.3276,-74.74726 -0.03,-105.36612 -1.2812,-109.72588 -2.5034,-8.72218 -8.1182,-15.37626 -16.6025,-19.67558 l -7.41504,-3.7575 -146.31798,0.034 c -138.91348,0.032 -146.624,0.174 -152.36522,2.81874 -7.41524,3.41566 -13.17378,8.69554 -16.86164,15.46004 -2.65378,4.86774 -2.812,12.58174 -3.19828,155.92424 -0.2236,82.94174 0.116,150.77494 0.7558,150.74046 0.6392,-0.034 16.46938,-14.63302 35.17804,-32.44124 z"
     id="path3" /><path
     style="fill:#fcfcfc;stroke-width:0.0755906"
     d="M 14.173228,34.216975 C 11.96044,32.020863 10.998924,31.014384 9.9779525,29.825514 9.7700785,29.583455 9.5364778,29.313218 9.45884,29.224987 8.5305735,28.170061 7.0806175,26.262113 6.3497631,25.133858 5.6251076,24.015172 5.576619,23.938314 5.3721379,23.584251 5.172297,23.238224 4.1611105,21.191966 4.0367282,20.881889 3.9992048,20.788346 3.9379998,20.635275 3.9007171,20.541732 3.6208312,19.839491 3.4529878,19.273521 3.2511004,18.351218 3.0907146,17.618511 3.0896036,14.63914 3.2493733,13.719685 3.482806,12.376308 3.8474345,11.268843 4.4564366,10.053543 4.5918554,9.7833068 4.7752869,9.4431494 4.8640621,9.2976376 4.9528374,9.1521258 5.0487948,8.982047 5.0773009,8.9196848 5.1058069,8.8573226 5.150864,8.7892911 5.1774278,8.7685037 5.2039916,8.7477163 5.3410086,8.5613683 5.4819101,8.3543971 5.8610033,7.7975442 5.9717831,7.671468 6.8449505,6.8031494 7.6404174,6.0120999 7.7836137,5.8881091 8.4283462,5.4321178 8.6154329,5.2997995 8.7855116,5.1714744 8.806299,5.1469506 8.89212,5.0457048 11.074854,3.912529 11.225197,3.8911696 c 0.02079,-0.00295 0.360944,-0.1118672 0.755905,-0.2420308 1.331144,-0.4386932 2.097139,-0.5454559 3.954883,-0.5512228 1.225622,-0.0038 2.12674,0.059298 2.810471,0.1968076 0.433179,0.08712 1.588765,0.4216669 1.825597,0.5285183 0.131008,0.059107 0.272818,0.1074667 0.315134,0.1074667 0.04232,0 0.173239,0.049702 0.290939,0.1104486 0.117699,0.060747 0.401086,0.1984951 0.629747,0.3061074 0.550506,0.2590783 1.415534,0.7801374 1.851969,1.1155538 2.483611,1.9087469 4.004647,4.1043095 4.754777,6.8633496 0.266076,0.978649 0.377748,1.590628 0.461189,2.527375 0.04056,0.45532 0.04757,2.508475 0.0093,2.72126 -0.01496,0.08315 -0.0698,0.389291 -0.121879,0.680315 -0.273681,1.529471 -1.075786,3.577166 -2.102285,5.366929 -0.566622,0.987939 -2.536027,3.873713 -2.811491,4.119685 -0.02328,0.02079 -0.160013,0.190866 -0.303852,0.377952 -0.617117,0.802664 -1.982391,2.371585 -2.330791,2.678457 -0.09753,0.0859 -0.845876,0.853448 -1.662992,1.705654 -1.362281,1.420782 -3.470961,3.478098 -3.563539,3.476739 -0.02126,-3.12e-4 -0.838033,-0.793914 -1.815041,-1.763559 z m -4.129849,-10.765007 1.700109,-1.606299 6.222744,-7.09e-4 6.222744,-7.1e-4 0.40098,-0.22995 c 0.264111,-0.15146 0.477634,-0.350819 0.625545,-0.584051 L 25.440064,20.67615 25.419244,15.30164 25.398425,9.9271304 25.17529,9.6051972 C 25.051827,9.4270684 24.781702,9.1854945 24.570565,9.0643885 L 24.188976,8.8455129 16.932283,8.8452252 C 12.372043,8.8450444 9.5754466,8.8727572 9.4060834,8.9198052 9.0549567,9.0173472 8.5607736,9.444461 8.3814505,9.8053777 8.2457664,10.078464 8.2383234,10.429446 8.2161255,17.601448 c -0.015345,4.957881 0.00231,7.501055 0.05195,7.483465 0.041357,-0.01466 0.8402437,-0.749481 1.7753035,-1.632945 z"
     id="path4"
     transform="matrix(20,0,0,20,0,-960)" /><path
     style="fill:#fcfcfc;stroke-width:0.0755906"
     d="M 14.126453,34.185266 C 12.334965,32.421721 11.031957,31.054545 9.9300701,29.782226 6.3744645,25.676664 4.2449348,22.160443 3.383816,18.973228 3.212616,18.339574 3.1844708,18.05566 3.1445051,16.559182 3.0960859,14.74617 3.1538905,13.99567 3.4321338,12.824783 3.6034656,12.103795 3.9120215,11.161677 4.0861408,10.827895 4.1456526,10.713812 4.1945537,10.585674 4.1948098,10.543142 4.1957233,10.39146 5.1066121,8.8303006 5.5216607,8.2690713 6.469266,6.9877183 8.0702333,5.5244521 9.2082009,4.8996148 10.225743,4.3409013 11.116596,3.9162872 11.619119,3.7504816 c 1.638629,-0.54066 2.362503,-0.6487709 4.366746,-0.6521749 1.630173,-0.00277 2.432429,0.085333 3.541905,0.3889637 0.318624,0.087198 0.647348,0.1765327 0.730497,0.1985218 0.08315,0.021989 0.185197,0.064393 0.226772,0.09423 0.04157,0.029837 0.177638,0.078357 0.302362,0.1078203 0.357761,0.084514 1.765336,0.811296 2.39775,1.2380448 2.911703,1.9647969 4.792837,4.7685644 5.461198,8.1397327 0.22826,1.15133 0.27455,1.687638 0.269707,3.124804 -0.0051,1.513916 -0.190077,2.464928 -0.818474,4.208001 -0.302022,0.837759 -1.329672,2.923743 -1.787488,3.628346 -2.049498,3.154288 -3.183527,4.580536 -6.131712,7.711751 -0.08551,0.09082 -0.187559,0.179242 -0.226772,0.196491 -0.03921,0.01725 -0.5135,0.486791 -1.053973,1.043422 -1.050727,1.082143 -2.835088,2.803032 -2.905456,2.802106 -0.02342,-3.08e-4 -0.862994,-0.808182 -1.865728,-1.795275 z m -3.534734,-11.257304 1.1429,-1.082293 6.227179,-7.09e-4 6.227178,-7.1e-4 0.40098,-0.22995 c 0.262892,-0.150761 0.477655,-0.350852 0.623622,-0.58102 l 0.222642,-0.351068 -0.0017,-5.257641 c -0.0016,-5.031665 -0.0079,-5.271464 -0.147627,-5.5792169 -0.16779,-0.3696549 -0.447934,-0.652628 -0.849276,-0.8578518 -0.269576,-0.1378456 -0.559276,-0.143408 -7.468889,-0.143408 -4.930692,0 -7.2910502,0.025838 -7.5151485,0.082267 -0.410988,0.103488 -0.8295024,0.4444747 -1.0445209,0.8510288 l -0.1660411,0.3139479 -0.027987,7.39117 c -0.015393,4.065144 -0.00728,7.445119 0.018018,7.511057 0.049006,0.127708 -0.037563,0.203523 2.3586305,-2.065603 z"
     id="path5"
     transform="matrix(20,0,0,20,0,-960)" /><path
     style="fill:#fcfcfc;stroke-width:0.0755906"
     d="m 13.833071,20.016593 c -0.372632,-0.265039 -0.868218,-0.757747 -1.106484,-1.100058 l -0.223614,-0.32126 h 0.236218 c 0.371955,0 0.678131,-0.353112 0.678131,-0.782086 0,-0.626989 -0.552375,-1.015135 -1.173407,-0.824535 l -0.249051,0.07644 -0.02918,-0.349868 c -0.04444,-0.532793 0.0026,-0.702207 0.170089,-0.612569 0.185336,0.09919 0.648361,0.09337 0.851877,-0.01071 0.290654,-0.148642 0.426357,-0.386848 0.425592,-0.747058 -10e-4,-0.491227 -0.331687,-0.831497 -0.807972,-0.831497 h -0.249284 l 0.151015,-0.283464 c 0.19141,-0.359289 0.340217,-0.548032 0.432076,-0.548032 0.101149,0 0.478249,-0.405208 0.478249,-0.513898 0,-0.193958 1.225437,-0.922322 1.551762,-0.922322 0.0905,0 0.111231,0.140893 0.111231,0.755905 v 0.755906 h 2.135983 2.135983 l 0.207324,0.343238 c 0.114028,0.188781 0.207324,0.35886 0.207324,0.377953 0,0.01909 -1.054489,0.03471 -2.343307,0.03471 h -2.343307 v 0.831497 0.831496 h 2.579845 2.579846 l -0.05239,0.531667 c -0.107685,1.092826 -0.546172,2.06537 -1.240392,2.751134 -0.776054,0.766599 -0.600615,0.722767 -2.884233,0.720605 -1.922182,-0.0018 -2.012316,-0.0084 -2.229921,-0.163191 z m 5.631495,-2.252814 v -0.831496 h -2.192125 -2.192126 v 0.831496 0.831496 h 2.192126 2.192125 z"
     id="path6"
     transform="matrix(20,0,0,20,0,-960)" /><path
     style="fill:#fcfcfc;stroke-width:0.0755906"
     d="M 14.126453,34.185266 C 12.173197,32.262476 10.9874,31.009367 9.6384688,29.442519 6.3139818,25.580968 4.1816293,21.996523 3.3510288,18.87345 3.2147569,18.361065 3.1790947,17.964567 3.1428961,16.5594 3.081599,14.179959 3.2803608,12.87153 3.9761743,11.074015 4.5955861,9.4738715 5.4841976,8.1434517 6.8330915,6.7966694 7.948527,5.68298 8.6311574,5.1860678 10.049335,4.4554454 c 2.028466,-1.0450328 3.370992,-1.3527215 5.92134,-1.3570902 1.679573,-0.00288 2.418694,0.080959 3.667895,0.4160368 3.627346,0.9729766 6.787125,3.7511085 8.257148,7.259827 0.48537,1.158504 0.785257,2.350062 0.97911,3.890348 0.102372,0.813413 0.04012,2.853504 -0.109946,3.602951 -0.518144,2.587707 -1.729004,5.077925 -4.091177,8.413792 -0.487512,0.688465 -1.710672,2.189543 -2.68115,3.290343 -1.193302,1.353545 -5.855952,6.011987 -6.014315,6.008888 -0.01575,-3.08e-4 -0.849053,-0.808182 -1.851787,-1.795275 z m -4.07291,-10.751014 1.662992,-1.582253 6.221077,-0.0032 c 5.615431,-0.0029 6.244627,-0.01525 6.462992,-0.12724 0.377742,-0.193736 0.597946,-0.388915 0.825195,-0.731417 l 0.209774,-0.316162 -9.8e-5,-5.177952 c -6.5e-5,-3.41817 -0.02736,-5.27611 -0.0803,-5.466768 C 25.252719,9.6603205 24.80457,9.1622039 24.415747,8.9851207 24.130215,8.8550795 23.719505,8.8473221 17.037089,8.8457544 12.537306,8.8446987 9.812804,8.8721596 9.5543489,8.9211746 9.0674268,9.0135175 8.6902258,9.2939906 8.4326496,9.75523 l -0.184673,0.330692 -0.032931,7.272183 c -0.018112,3.9997 -0.010896,7.359974 0.016034,7.467274 0.026931,0.107301 0.073829,0.1942 0.1042178,0.193109 0.030389,-0.0011 0.8035992,-0.713997 1.7182456,-1.584236 z"
     id="path7"
     transform="matrix(20,0,0,20,0,-960)" /><path
     style="fill:#fcfcfc;stroke-width:0.0755906"
     d="M 13.973832,34.034645 C 10.66961,30.764402 8.6737844,28.474782 6.7872883,25.790209 5.1421634,23.449118 3.9064145,20.961711 3.3510288,18.87345 3.2147569,18.361065 3.1790947,17.964567 3.1428961,16.5594 3.0943115,14.673433 3.1585024,13.927101 3.4795903,12.644742 4.0658853,10.303198 5.1639008,8.4049452 6.9283967,6.6824321 7.9721696,5.6634937 8.664702,5.1688494 10.038353,4.461132 c 2.040079,-1.0510672 3.377939,-1.3584012 5.932322,-1.3627768 1.684041,-0.00288 2.459292,0.084936 3.690577,0.41807 2.641388,0.7146485 5.001312,2.349835 6.783075,4.699978 1.223087,1.6132502 2.025279,3.6151958 2.35567,5.8788008 0.174595,1.196195 0.157816,3.208155 -0.0348,4.172904 -0.70179,3.515048 -2.896174,7.307153 -6.772509,11.703545 -1.235912,1.401723 -5.851584,6.009448 -6.019813,6.009448 -0.0178,0 -0.917369,-0.875905 -1.999043,-1.946456 z M 9.5531623,23.90665 C 10.202545,23.294047 10.95496,22.580133 11.225197,22.320173 l 0.491338,-0.472656 6.198425,-0.0026 c 5.847594,-0.0024 6.215704,-0.01043 6.503714,-0.141259 0.327487,-0.148758 0.920176,-0.764735 0.98467,-1.02336 0.0216,-0.08661 0.02933,-2.521574 0.01718,-5.411023 C 25.395812,9.3945424 25.436543,9.815459 24.840673,9.2771264 24.674039,9.1265822 24.399793,8.9662747 24.231238,8.9208875 24.01709,8.8632236 21.744461,8.8449207 16.686796,8.8601274 L 9.4488187,8.8818895 9.1120178,9.0708659 C 8.9267772,9.1748029 8.6716591,9.4071776 8.5450887,9.5872541 l -0.2301283,0.327412 -0.038654,1.5245569 c -0.061165,2.412428 -0.087109,13.165458 -0.032292,13.383868 0.027247,0.108559 0.067295,0.197381 0.088996,0.197381 0.021701,0 0.5707692,-0.50122 1.2201519,-1.113822 z"
     id="path8"
     transform="matrix(20,0,0,20,0,-960)" /><path
     style="fill:#fcfcfc;stroke-width:0.0755906"
     d="M 14.010341,34.07244 C 11.161648,31.255836 9.293687,29.172006 7.6239673,26.948031 5.4390084,24.037785 4.0026168,21.323433 3.3510288,18.87345 3.2147569,18.361065 3.1790947,17.964567 3.1428961,16.5594 3.0947979,14.692314 3.1546903,13.977935 3.4684925,12.67578 4.0214285,10.381315 5.1603898,8.4083727 6.9283967,6.6824321 7.9589611,5.676388 8.6806645,5.1569355 9.9844486,4.4828114 12.064963,3.4070774 13.373547,3.1048525 15.986632,3.0965737 c 0.965938,-0.00306 1.735596,0.035197 2.23069,0.1108809 2.636329,0.403009 4.98586,1.5986386 6.917357,3.5201043 2.060395,2.0496927 3.255782,4.4518381 3.667723,7.3703321 0.155122,1.098997 0.15135,3.206809 -0.0073,4.053981 -0.660162,3.526201 -3.011748,7.581174 -6.989653,12.052655 -1.023211,1.150171 -5.681288,5.776574 -5.816122,5.776574 -0.02674,0 -0.917308,-0.858897 -1.979032,-1.908661 z M 9.5483332,23.907102 c 0.6520388,-0.612353 1.4007208,-1.318179 1.6637398,-1.568504 l 0.478214,-0.455134 6.299572,-0.03779 6.299571,-0.0378 0.325346,-0.228693 c 0.17894,-0.125782 0.439369,-0.378189 0.578731,-0.560904 l 0.253385,-0.332211 -0.02423,-5.335158 C 25.400847,10.549187 25.385873,9.9930739 25.27289,9.7889761 25.131995,9.534459 24.828699,9.236327 24.494619,9.0239584 24.279815,8.8874107 23.982884,8.8818895 16.854013,8.8818895 H 9.4368957 l -0.369993,0.22877 c -0.2195019,0.13572 -0.4566133,0.3688749 -0.5829551,0.573228 l -0.2129621,0.3444585 -0.036016,7.288189 c -0.032497,6.57615 -0.018761,7.703937 0.093829,7.703937 0.018705,0 0.5674957,-0.501017 1.2195347,-1.11337 z"
     id="path9"
     transform="matrix(20,0,0,20,0,-960)" /><path
     style="fill:#fcfcfc;stroke-width:0.0755906"
     d="M 13.93387,33.99685 C 9.8774553,29.975541 7.4105781,26.994721 5.4902861,23.79415 4.4375701,22.039578 3.3975441,19.478058 3.2206811,18.204252 3.1120156,17.42162 3.1080559,14.612099 3.2146269,13.908661 3.6496789,11.037037 4.8684229,8.6893092 7.0049555,6.6071597 7.9345861,5.7011918 8.6617803,5.1762359 9.8807648,4.5311347 11.354274,3.7513359 12.555998,3.3581405 14.013934,3.1787917 c 0.963847,-0.1185681 3.401148,-0.1019459 4.241184,0.028925 3.737673,0.5822983 7.064048,2.8975273 9.021121,6.2788975 0.72222,1.2478298 1.296212,2.9821378 1.526163,4.6112768 0.155122,1.098997 0.15135,3.206809 -0.0073,4.053981 -0.6419,3.428655 -2.979108,7.51539 -6.716518,11.74419 -1.210943,1.370156 -5.931148,6.085039 -6.091908,6.085039 -0.0282,0 -0.951987,-0.892913 -2.052852,-1.984251 z m -3.804736,-10.63739 1.587401,-1.51053 6.085039,-0.0034 c 3.346772,-0.0019 6.216652,-0.03397 6.377511,-0.07129 0.347948,-0.08073 0.762144,-0.398225 1.050368,-0.805145 l 0.208982,-0.295044 -0.02162,-5.291338 c -0.02425,-5.9342243 0.0082,-5.5972831 -0.587784,-6.1074075 -0.178474,-0.1527674 -0.446522,-0.3037736 -0.595662,-0.3355694 -0.149141,-0.031796 -3.536677,-0.057811 -7.527858,-0.057811 -8.0650183,0 -7.4316839,-0.040151 -7.9775795,0.5057449 -0.4638295,0.4638294 -0.4410096,0.092081 -0.4798971,7.817798 -0.019647,3.903311 -0.017754,7.257894 0.00421,7.454629 0.034273,0.307021 0.057609,0.347231 0.1647101,0.283813 0.068629,-0.04064 0.8391105,-0.753623 1.7121815,-1.584414 z"
     id="path10"
     transform="matrix(20,0,0,20,0,-960)" /><path
     style="fill:#fcfcfc;stroke-width:0.0755906"
     d="m 10.015748,15.768772 v -5.261686 h 6.803149 6.80315 v 4.837796 4.837795 l -2.777953,-2.83e-4 c -2.725495,-2.77e-4 -2.773664,-0.0029 -2.550839,-0.138786 0.408793,-0.249297 1.087708,-1.015177 1.361103,-1.53545 0.301406,-0.573575 0.566114,-1.51049 0.566114,-2.003715 v -0.328065 h 0.907087 0.907086 V 15.344882 14.513385 H 20.915638 19.796631 L 19.592504,14.135433 19.388378,13.75748 h 1.323133 1.323134 V 12.925984 12.094488 H 18.55748 c -2.267717,0 -3.477165,0.02629 -3.477165,0.07559 0,0.04157 -0.05005,0.07559 -0.111231,0.07559 -0.193969,0 -0.973938,0.376232 -1.268297,0.611785 l -0.283465,0.226835 v -0.235303 c 0,-0.314927 -0.11043,-0.502771 -0.376439,-0.64033 -0.457319,-0.236489 -1.096177,-0.08606 -1.271836,0.299468 -0.264531,0.580583 0.05666,1.15778 0.683586,1.228444 l 0.35324,0.03982 -0.185614,0.243352 c -0.102087,0.133844 -0.185614,0.281788 -0.185614,0.328765 0,0.04698 -0.09904,0.136629 -0.220097,0.199228 -0.505184,0.261241 -0.670381,0.776986 -0.407862,1.273347 0.191842,0.362728 0.201121,1.242388 0.01559,1.478248 -0.09031,0.114808 -0.143539,0.302692 -0.143539,0.50663 0,0.261178 0.04518,0.369332 0.232586,0.556735 0.127923,0.127922 0.312235,0.232586 0.409583,0.232586 0.11873,0 0.227791,0.08219 0.331293,0.249657 0.158759,0.256878 0.99372,1.078665 1.258671,1.238811 0.118533,0.07165 -0.17061,0.09095 -1.415226,0.09449 l -1.564195,0.0044 -0.457852,0.42389 -0.457852,0.42389 z"
     id="path11"
     transform="matrix(20,0,0,20,0,-960)" /><path
     style="fill:#fcfcfc;stroke-width:0.0755906;fill-opacity:1"
     d="m 10.015748,15.766668 v -5.259582 h 6.840944 6.840945 v 4.839263 4.839264 l -4.932283,-0.0041 c -2.712756,-0.0022 -5.578583,-0.0028 -6.368504,-0.0011 l -1.43622,0.003 -0.472441,0.421446 -0.472441,0.421447 z m 2.532283,2.904198 c -0.02712,-0.04388 0.04694,-0.07559 0.176521,-0.07559 0.142014,0 0.308658,-0.07979 0.458005,-0.219304 0.195686,-0.182798 0.234765,-0.276206 0.234765,-0.561129 0,-0.63004 -0.551599,-1.017026 -1.176341,-0.825287 -0.211376,0.06487 -0.257299,0.05735 -0.284959,-0.04666 -0.02016,-0.0758 -0.03732,-0.05055 -0.04415,0.06498 -0.0061,0.103937 -0.06111,0.255005 -0.122154,0.335707 -0.147518,0.195036 -0.140774,0.611005 0.01416,0.873284 0.09847,0.166704 0.404401,0.37405 0.76751,0.52019 0.01285,0.0052 0.0023,-0.02462 -0.02336,-0.06619 z m 6.916535,-0.907087 v -0.831496 h -2.192125 -2.192126 v 0.831496 0.831496 h 2.192126 2.192125 z M 12.134278,16.10362 c 0.167605,0.105992 0.65869,0.08679 0.894129,-0.03496 0.249163,-0.128847 0.388915,-0.406505 0.388915,-0.772691 0,-0.204644 -0.06117,-0.329742 -0.257007,-0.525577 -0.219374,-0.219373 -0.309032,-0.257008 -0.612284,-0.257008 -0.303251,0 -0.39291,0.03763 -0.612283,0.257008 -0.205861,0.205861 -0.257008,0.316657 -0.257008,0.556735 0,0.176333 0.05759,0.373944 0.139893,0.48 0.07694,0.09915 0.125375,0.231297 0.107631,0.293659 -0.02261,0.07946 -0.01298,0.08631 0.03218,0.02289 0.04241,-0.05956 0.102523,-0.06642 0.175833,-0.02005 z m 9.900367,-0.758738 V 14.513385 H 18.55748 15.080315 v 0.831497 0.831496 h 3.477165 3.477165 z m -8.827649,-1.883525 c 0.14359,-0.160705 0.210326,-0.317836 0.210326,-0.495214 0,-0.563722 -0.321794,-0.871655 -0.910891,-0.871655 -0.601451,0 -1.027549,0.694769 -0.747276,1.218463 0.263851,0.49301 1.066433,0.575276 1.447841,0.148406 z m 8.827649,-0.535373 V 12.094488 H 18.55748 15.080315 v 0.831496 0.831496 h 3.477165 3.477165 z"
     id="path12"
     transform="matrix(20,0,0,20,0,-960)" /><path
     style="fill:#fcfcfc;fill-opacity:1;stroke-width:0.0755906"
     d="m 10.015748,15.766668 v -5.259582 h 6.840944 6.840945 v 4.837796 4.837795 l -6.368504,3.39e-4 -6.368503,3.4e-4 -0.472441,0.421446 -0.472441,0.421447 z m 3.045315,2.714773 c 0.189258,-0.078 0.356259,-0.433092 0.356259,-0.757518 0,-0.201089 -0.05784,-0.33198 -0.217085,-0.491221 -0.259901,-0.2599 -0.517152,-0.33549 -0.898372,-0.263973 -0.155632,0.0292 -0.291202,0.04144 -0.301265,0.02722 -0.01006,-0.01423 -0.0866,0.101568 -0.170079,0.257323 -0.198248,0.369887 -0.193863,0.738986 0.01189,1.000554 0.29522,0.375311 0.684048,0.447935 1.218656,0.227618 z m 6.403503,-0.717662 v -0.831496 h -2.192125 -2.192126 v 0.831496 0.831496 h 2.192126 2.192125 z M 13.160315,15.91937 c 0.210693,-0.210694 0.257007,-0.31422 0.257007,-0.574488 0,-0.262474 -0.04616,-0.363645 -0.266444,-0.583926 -0.250959,-0.250958 -0.289141,-0.264264 -0.656928,-0.228924 -0.316991,0.03046 -0.430452,0.08225 -0.602847,0.275197 -0.260633,0.291699 -0.287891,0.723609 -0.06366,1.008675 0.08179,0.103976 0.124308,0.216064 0.09449,0.249084 -0.02982,0.03302 -0.01858,0.03982 0.02498,0.01511 0.04356,-0.02471 0.128599,-0.01368 0.188976,0.02452 0.06038,0.03819 0.257745,0.06997 0.438596,0.0706 0.273969,9.64e-4 0.37169,-0.04171 0.585827,-0.25585 z m 8.87433,-0.574488 V 14.513385 H 18.55748 15.080315 v 0.831497 0.831496 h 3.477165 3.477165 z m -9.071701,-1.700356 c 0.305974,-0.158225 0.454378,-0.400871 0.454378,-0.74292 0,-0.232545 -0.0531,-0.346203 -0.257007,-0.55011 -0.219374,-0.219374 -0.309032,-0.257008 -0.612284,-0.257008 -0.303251,0 -0.39291,0.03763 -0.612283,0.257008 -0.410789,0.410788 -0.34786,0.95825 0.144667,1.258565 0.288649,0.176003 0.586344,0.187628 0.882529,0.03447 z m 9.071701,-0.718542 V 12.094488 H 18.55748 15.080315 v 0.831496 0.831496 h 3.477165 3.477165 z"
     id="path13"
     transform="matrix(20,0,0,20,0,-960)" /><path
     style="fill:#fcfcfc;fill-opacity:1;stroke-width:0.0755906"
     d="M 13.931855,33.99685 C 9.9116844,30.010452 7.5216166,27.133513 5.5839506,23.948428 4.5511155,22.250681 3.4132955,19.55139 3.2478013,18.406299 3.2177583,18.198425 3.1811315,17.961751 3.1664083,17.880357 3.0841516,17.425616 3.1436107,14.337858 3.2465278,13.719685 3.7139493,10.912111 4.8965938,8.6627833 6.9663445,6.6447887 8.1009306,5.5385741 9.1264709,4.8424362 10.724741,4.0935849 c 0.90164,-0.4224535 2.177628,-0.7816126 3.267981,-0.9198559 0.788103,-0.099922 3.338808,-0.098643 4.073419,0.00204 2.686914,0.368266 5.190831,1.645574 7.181102,3.663253 1.987974,2.0153485 3.150169,4.38978 3.556049,7.265207 0.153258,1.085743 0.149833,3.20094 -0.0066,4.04764 -0.667522,3.614069 -3.303971,8.070637 -7.372536,12.4623 -1.534411,1.656263 -5.296165,5.366929 -5.44082,5.366929 -0.02776,0 -0.950943,-0.892913 -2.051527,-1.984251 z m -3.727131,-10.71233 1.511811,-1.436584 6.009449,-0.0056 c 3.305197,-0.0031 6.171868,-0.03236 6.370382,-0.06503 0.408492,-0.06721 0.811006,-0.354112 1.1339,-0.808212 l 0.209793,-0.295044 -0.02606,-5.291338 C 25.394313,11.384704 25.364953,10.035908 25.293887,9.8645667 25.167049,9.5587578 24.857428,9.2425889 24.491338,9.0450455 l -0.302362,-0.163156 h -7.294488 c -5.783649,0 -7.3517433,0.020304 -7.5709217,0.09803 C 9.1715278,9.0338359 8.8941317,9.24152 8.7071303,9.4414395 8.3959933,9.7740702 8.363385,9.845966 8.3230413,10.288291 8.2728615,10.838459 8.2178501,22.776795 8.2592401,24.134149 l 0.027141,0.890055 0.2032662,-0.151549 c 0.1117965,-0.08335 0.8835812,-0.798012 1.7150767,-1.588135 z"
     id="path14"
     transform="matrix(20,0,0,20,0,-960)" /></svg>
