<?xml version="1.0" encoding="UTF-8" standalone="no"?>
<svg
   height="40"
   viewBox="0 -960 640 800"
   width="32"
   fill="#5f6368"
   version="1.1"
   id="svg1"
   sodipodi:docname="multi-marker.svg"
   inkscape:version="1.3.2 (091e20ef0f, 2023-11-25)"
   xml:space="preserve"
   xmlns:inkscape="http://www.inkscape.org/namespaces/inkscape"
   xmlns:sodipodi="http://sodipodi.sourceforge.net/DTD/sodipodi-0.dtd"
   xmlns="http://www.w3.org/2000/svg"
   xmlns:svg="http://www.w3.org/2000/svg"><defs
     id="defs1" /><sodipodi:namedview
     id="namedview1"
     pagecolor="#ffffff"
     bordercolor="#000000"
     borderopacity="0.25"
     inkscape:showpageshadow="2"
     inkscape:pageopacity="0.0"
     inkscape:pagecheckerboard="0"
     inkscape:deskcolor="#d1d1d1"
     inkscape:zoom="13.229167"
     inkscape:cx="8.0503935"
     inkscape:cy="16.062992"
     inkscape:window-width="2742"
     inkscape:window-height="1457"
     inkscape:window-x="0"
     inkscape:window-y="0"
     inkscape:window-maximized="1"
     inkscape:current-layer="svg1" /><g
     id="g3"
     inkscape:export-filename="multi-marker.png"
     inkscape:export-xdpi="96"
     inkscape:export-ydpi="96"
     transform="translate(-160,-80)"><g
       id="g2"><path
         d="m 480.09,-490 q 28.91,0 49.41,-20.59 20.5,-20.59 20.5,-49.5 0,-28.91 -20.59,-49.41 -20.59,-20.5 -49.5,-20.5 -28.91,0 -49.41,20.59 -20.5,20.59 -20.5,49.5 0,28.91 20.59,49.41 20.59,20.5 49.5,20.5 z M 480,-159 Q 613,-280 676.5,-378.5 740,-477 740,-552 740,-669.79 664.71,-744.9 589.42,-820 480,-820 370.58,-820 295.29,-744.9 220,-669.79 220,-552 q 0,75 65,173.5 65,98.5 195,219.5 z m 0,79 Q 319,-217 239.5,-334.5 160,-452 160,-552 q 0,-150 96.5,-239 96.5,-89 223.5,-89 127,0 223.5,89 96.5,89 96.5,239 0,100 -79.5,217.5 Q 641,-217 480,-80 Z m 0,-480 z"
         id="path1" /><ellipse
         style="fill:#fcfcfc;fill-opacity:1;stroke-width:20"
         id="path2"
         cx="481.42322"
         cy="-552.1181"
         rx="82.618111"
         ry="86.379921" /></g><g
       style="fill:#5f6368"
       id="g1"
       transform="matrix(0.5,0,0,0.5,241.5118,-318.4882)"><path
         d="m 120,-240 v -80 h 720 v 80 z m 0,-200 v -80 h 720 v 80 z m 0,-200 v -80 h 720 v 80 z"
         id="path1-5" /></g></g><path
     style="fill:#fcfcfc;stroke-width:1.51181"
     d="m 285.67056,-273.1759 c -129.30578,-126.415 -201.5521,-230.842 -220.4179,-318.59862 -8.17504,-38.02716 -4.31724,-90.67466 9.80276,-133.77922 24.76096,-75.58852 88.29242,-138.15449 164.06268,-161.56944 30.82346,-9.52524 40.23056,-10.75754 81.6378,-10.69428 40.74324,0.0622 52.01602,1.62666 82.9676,11.51407 73.8331,23.5858 136.89146,86.36447 161.088,160.37355 12.78368,39.10096 17.43202,85.8371 12.1053,121.7108 -10.2624,69.11368 -55.11502,149.41384 -134.7287,241.2064 -18.72552,21.59004 -119.03126,122.02432 -121.80662,121.96272 -1.0414,-0.024 -16.66124,-14.47982 -34.71092,-32.12598 z M 502.17322,-538.07876 V -558.4882 H 434.3124 366.4516 l 11.11338,-11.11336 c 11.80788,-11.80788 21.9964,-29.5099 24.07882,-41.83568 l 1.0156,-6.01158 h 49.75688 49.75688 v -21.16536 -21.16536 h -51.1234 -51.12336 l -3.31086,-7.937 c -8.94076,-21.4334 -29.67714,-40.17844 -52.42664,-47.39202 -5.0523,-1.602 7.44666,-1.9342 75.9685,-2.01866 l 82.01576,-0.102 v -21.16448 -21.16536 H 321.5118 140.85038 v 21.16536 21.16534 l 82.01576,0.102 c 68.59854,0.084 81.01338,0.415 75.88854,2.02022 -21.27352,6.66306 -40.86472,23.56446 -50.21312,43.319 l -5.64394,11.92638 -51.02362,0.042 -51.02362,0.042 v 21.16536 21.16536 h 49.63012 49.6301 l 1.805,7.81954 c 3.31428,14.35826 10.64138,26.8973 23.03744,39.42454 l 11.59386,11.71654 H 208.69866 140.8504 v 20.40944 20.40946 h 180.66142 180.66142 z"
     id="path3" /><path
     style="fill:#fcfcfc;stroke-width:1.51181"
     d="m 306.96884,-252.9269 c -25.14386,-23.89548 -63.27804,-62.17386 -78.43342,-78.73 -8.31496,-9.08348 -16.47874,-17.96946 -18.14172,-19.7466 -7.16782,-7.6598 -15.54204,-17.1487 -21.16536,-23.98254 -3.32598,-4.04198 -7.6032,-9.13604 -9.50492,-11.3201 -1.9018,-2.18406 -11.06668,-13.8356 -20.36654,-25.8923 -55.20182,-71.56568 -85.7813,-131.76674 -95.60768,-188.22046 -2.14886,-12.34542 -3.28528,-53.59756 -1.7076,-61.98426 0.3128,-1.663 1.0524,-7.00462 1.6436,-11.8703 5.32518,-43.83444 19.54544,-80.34092 46.51746,-119.42032 10.01856,-14.51574 36.58796,-41.77098 50.58948,-51.89533 2.1045,-1.52174 4.60136,-3.46433 5.5486,-4.31688 3.22028,-2.89835 20.5802,-14.32394 21.76366,-14.32394 0.6478,0 3.5469,-1.57162 6.44228,-3.4925 7.87936,-5.22738 36.66006,-16.95338 52.39576,-21.34739 24.86492,-6.94322 35.1888,-8.08041 73.05754,-8.04735 37.80922,0.033 49.1826,1.27576 73.32284,8.01189 14.57284,4.06643 21.34834,6.57382 40.063,14.82596 11.65556,5.13947 36.30764,20.49642 46.89928,29.21577 6.4818,5.33603 18.76998,16.42155 24.07834,21.72181 6.66804,6.65786 21.4967,23.94344 25.43388,29.64796 21.29438,30.85314 32.97116,56.50016 41.19064,90.47172 13.04826,53.92904 9.35928,111.60312 -10.15342,158.74016 -11.3637,27.45138 -15.64138,36.12718 -31.30732,63.49606 -6.76922,11.82606 -29.9019,46.11 -42.26602,62.64062 -10.50458,14.0445 -14.8474,19.61158 -25.90688,33.21034 -13.17128,16.19542 -37.15446,42.26276 -55.64268,60.47806 -12.15726,11.97782 -21.79104,22.28444 -21.40838,22.9036 0.3826,0.6192 -3.48726,4.76556 -8.5998,9.21426 -5.11252,4.4487 -15.82548,14.4889 -23.80658,22.31158 -7.98108,7.82266 -18.33414,17.8762 -23.00678,22.34124 l -8.4957,8.1182 z M 502.17322,-538.07876 V -558.4882 H 321.5118 140.85038 l -0.4268,18.81378 c -0.2348,10.34758 -0.084,19.70466 0.3328,20.79356 0.6214,1.6194 33.5761,1.9098 181.08826,1.5956 l 180.32856,-0.384 z m 0.4206,-100.15748 0.4206,-20.7874 H 372.8668 c -71.58118,0 -129.83168,-0.5102 -129.44554,-1.1338 0.3862,-0.6236 -22.53434,-0.7938 -50.9344,-0.378 l -51.63648,0.756 -0.4254,19.57358 c -0.234,10.7655 -0.144,20.30764 0.2006,21.2048 0.4432,1.1548 53.33512,1.6196 181.08676,1.5918 l 180.46082,-0.04 z m 0,-99.77952 0.4206,-20.7874 H 321.55444 140.09446 v 20.15748 c 0,11.08662 0.4292,20.58676 0.954,21.11142 0.5246,0.5246 81.99238,0.8082 181.03936,0.63 l 180.08544,-0.324 z"
     id="path4" /></svg>
