<?xml version="1.0" encoding="UTF-8" standalone="no"?>
<svg
   height="40"
   viewBox="0 -960 640 800"
   width="32"
   fill="#5f6368"
   version="1.1"
   id="svg1"
   sodipodi:docname="multi-marker.svg"
   inkscape:version="1.3.2 (091e20ef0f, 2023-11-25)"
   xml:space="preserve"
   xmlns:inkscape="http://www.inkscape.org/namespaces/inkscape"
   xmlns:sodipodi="http://sodipodi.sourceforge.net/DTD/sodipodi-0.dtd"
   xmlns="http://www.w3.org/2000/svg"
   xmlns:svg="http://www.w3.org/2000/svg"><defs
     id="defs1" /><sodipodi:namedview
     id="namedview1"
     pagecolor="#ffffff"
     bordercolor="#000000"
     borderopacity="0.25"
     inkscape:showpageshadow="2"
     inkscape:pageopacity="0.0"
     inkscape:pagecheckerboard="0"
     inkscape:deskcolor="#d1d1d1"
     inkscape:zoom="13.229167"
     inkscape:cx="8.0125982"
     inkscape:cy="16.062992"
     inkscape:window-width="2742"
     inkscape:window-height="1457"
     inkscape:window-x="0"
     inkscape:window-y="0"
     inkscape:window-maximized="1"
     inkscape:current-layer="svg1" /><g
     id="g3"
     inkscape:export-filename="multi-marker.png"
     inkscape:export-xdpi="96"
     inkscape:export-ydpi="96"
     transform="translate(-160,-80)"><g
       id="g2"><path
         d="m 480.09,-490 q 28.91,0 49.41,-20.59 20.5,-20.59 20.5,-49.5 0,-28.91 -20.59,-49.41 -20.59,-20.5 -49.5,-20.5 -28.91,0 -49.41,20.59 -20.5,20.59 -20.5,49.5 0,28.91 20.59,49.41 20.59,20.5 49.5,20.5 z M 480,-159 Q 613,-280 676.5,-378.5 740,-477 740,-552 740,-669.79 664.71,-744.9 589.42,-820 480,-820 370.58,-820 295.29,-744.9 220,-669.79 220,-552 q 0,75 65,173.5 65,98.5 195,219.5 z m 0,79 Q 319,-217 239.5,-334.5 160,-452 160,-552 q 0,-150 96.5,-239 96.5,-89 223.5,-89 127,0 223.5,89 96.5,89 96.5,239 0,100 -79.5,217.5 Q 641,-217 480,-80 Z m 0,-480 z"
         id="path1" /><ellipse
         style="fill:#fcfcfc;fill-opacity:1;stroke-width:20"
         id="path2"
         cx="481.42322"
         cy="-552.1181"
         rx="82.618111"
         ry="86.379921" /></g><g
       style="fill:#5f6368"
       id="g1"
       transform="matrix(0.5,0,0,0.5,241.5118,-318.4882)"><path
         d="m 120,-240 v -80 h 720 v 80 z m 0,-200 v -80 h 720 v 80 z m 0,-200 v -80 h 720 v 80 z"
         id="path1-5" /></g></g><path
     style="fill:#fcfcfc;stroke-width:1.51181"
     d="m 285.67056,-273.1759 c -129.30578,-126.415 -201.5521,-230.842 -220.4179,-318.59862 -8.17504,-38.02716 -4.31724,-90.67466 9.80276,-133.77922 24.76096,-75.58852 88.29242,-138.15449 164.06268,-161.56944 30.82346,-9.52524 40.23056,-10.75754 81.6378,-10.69428 40.74324,0.0622 52.01602,1.62666 82.9676,11.51407 73.8331,23.5858 136.89146,86.36447 161.088,160.37355 12.78368,39.10096 17.43202,85.8371 12.1053,121.7108 -10.2624,69.11368 -55.11502,149.41384 -134.7287,241.2064 -18.72552,21.59004 -119.03126,122.02432 -121.80662,121.96272 -1.0414,-0.024 -16.66124,-14.47982 -34.71092,-32.12598 z M 502.17322,-538.07876 V -558.4882 H 434.3124 366.4516 l 11.11338,-11.11336 c 11.80788,-11.80788 21.9964,-29.5099 24.07882,-41.83568 l 1.0156,-6.01158 h 49.75688 49.75688 v -21.16536 -21.16536 h -51.1234 -51.12336 l -3.31086,-7.937 c -8.94076,-21.4334 -29.67714,-40.17844 -52.42664,-47.39202 -5.0523,-1.602 7.44666,-1.9342 75.9685,-2.01866 l 82.01576,-0.102 v -21.16448 -21.16536 H 321.5118 140.85038 v 21.16536 21.16534 l 82.01576,0.102 c 68.59854,0.084 81.01338,0.415 75.88854,2.02022 -21.27352,6.66306 -40.86472,23.56446 -50.21312,43.319 l -5.64394,11.92638 -51.02362,0.042 -51.02362,0.042 v 21.16536 21.16536 h 49.63012 49.6301 l 1.805,7.81954 c 3.31428,14.35826 10.64138,26.8973 23.03744,39.42454 l 11.59386,11.71654 H 208.69866 140.8504 v 20.40944 20.40946 h 180.66142 180.66142 z"
     id="path3" /><path
     style="fill:#fcfcfc;stroke-width:1.51181"
     d="m 306.96884,-252.9269 c -25.14386,-23.89548 -63.27804,-62.17386 -78.43342,-78.73 -8.31496,-9.08348 -16.47874,-17.96946 -18.14172,-19.7466 -7.16782,-7.6598 -15.54204,-17.1487 -21.16536,-23.98254 -3.32598,-4.04198 -7.6032,-9.13604 -9.50492,-11.3201 -1.9018,-2.18406 -11.06668,-13.8356 -20.36654,-25.8923 -55.20182,-71.56568 -85.7813,-131.76674 -95.60768,-188.22046 -2.14886,-12.34542 -3.28528,-53.59756 -1.7076,-61.98426 0.3128,-1.663 1.0524,-7.00462 1.6436,-11.8703 5.32518,-43.83444 19.54544,-80.34092 46.51746,-119.42032 10.01856,-14.51574 36.58796,-41.77098 50.58948,-51.89533 2.1045,-1.52174 4.60136,-3.46433 5.5486,-4.31688 3.22028,-2.89835 20.5802,-14.32394 21.76366,-14.32394 0.6478,0 3.5469,-1.57162 6.44228,-3.4925 7.87936,-5.22738 36.66006,-16.95338 52.39576,-21.34739 24.86492,-6.94322 35.1888,-8.08041 73.05754,-8.04735 37.80922,0.033 49.1826,1.27576 73.32284,8.01189 14.57284,4.06643 21.34834,6.57382 40.063,14.82596 11.65556,5.13947 36.30764,20.49642 46.89928,29.21577 6.4818,5.33603 18.76998,16.42155 24.07834,21.72181 6.66804,6.65786 21.4967,23.94344 25.43388,29.64796 21.29438,30.85314 32.97116,56.50016 41.19064,90.47172 13.04826,53.92904 9.35928,111.60312 -10.15342,158.74016 -11.3637,27.45138 -15.64138,36.12718 -31.30732,63.49606 -6.76922,11.82606 -29.9019,46.11 -42.26602,62.64062 -10.50458,14.0445 -14.8474,19.61158 -25.90688,33.21034 -13.17128,16.19542 -37.15446,42.26276 -55.64268,60.47806 -12.15726,11.97782 -21.79104,22.28444 -21.40838,22.9036 0.3826,0.6192 -3.48726,4.76556 -8.5998,9.21426 -5.11252,4.4487 -15.82548,14.4889 -23.80658,22.31158 -7.98108,7.82266 -18.33414,17.8762 -23.00678,22.34124 l -8.4957,8.1182 z M 502.17322,-538.07876 V -558.4882 H 321.5118 140.85038 l -0.4268,18.81378 c -0.2348,10.34758 -0.084,19.70466 0.3328,20.79356 0.6214,1.6194 33.5761,1.9098 181.08826,1.5956 l 180.32856,-0.384 z m 0.4206,-100.15748 0.4206,-20.7874 H 372.8668 c -71.58118,0 -129.83168,-0.5102 -129.44554,-1.1338 0.3862,-0.6236 -22.53434,-0.7938 -50.9344,-0.378 l -51.63648,0.756 -0.4254,19.57358 c -0.234,10.7655 -0.144,20.30764 0.2006,21.2048 0.4432,1.1548 53.33512,1.6196 181.08676,1.5918 l 180.46082,-0.04 z m 0,-99.77952 0.4206,-20.7874 H 321.55444 140.09446 v 20.15748 c 0,11.08662 0.4292,20.58676 0.954,21.11142 0.5246,0.5246 81.99238,0.8082 181.03936,0.63 l 180.08544,-0.324 z"
     id="path4" /><path
     style="fill:#fcfcfc;fill-opacity:1;stroke-width:0.0755906"
     d="M 14.091524,34.147029 C 13.069578,33.139391 11.981074,32.042316 11.672626,31.709086 8.161503,27.915858 6.1010891,25.122642 4.6478013,22.185826 3.4697134,19.805137 3.0614172,18.266629 3.0614172,16.208143 c 0,-3.826842 1.2779145,-6.9844762 3.8410982,-9.491077 1.5928512,-1.5576886 3.0298984,-2.4282557 5.0785866,-3.0766216 1.350575,-0.427428 2.188236,-0.5413168 3.977524,-0.5407863 2.370374,7.029e-4 3.868173,0.3003079 5.622476,1.1246652 2.505508,1.1773525 4.704474,3.2993299 5.923213,5.7158339 0.944237,1.8722218 1.417678,3.9014278 1.428541,6.1228348 0.0061,1.238267 -0.02519,1.54748 -0.276421,2.735721 -0.106788,0.505065 -0.396444,1.414319 -0.665611,2.089408 -0.34425,0.863398 -1.265487,2.693087 -1.689553,3.35566 -0.424952,0.663954 -1.269235,1.938715 -1.340469,2.023935 -0.03475,0.04158 -0.303674,0.39874 -0.597605,0.793701 -1.460266,1.962182 -2.422758,3.053054 -5.125402,5.809039 -1.110279,1.132192 -3.178603,3.111481 -3.249526,3.109644 -0.02126,-5.5e-4 -0.8748,-0.825432 -1.896745,-1.833071 z m 9.551535,-12.0452 1.495026,-0.05238 -0.02101,-0.990078 -0.02101,-0.990079 -9.014173,-0.0192 -9.0141726,-0.0192 v 1.015522 c 0,0.99394 0.00361,1.016154 0.1700787,1.045225 0.3113475,0.05437 14.8858899,0.06344 16.4052639,0.0102 z m 1.47403,-6.019253 0.02103,-1.038685 -7.958034,-0.01958 c -4.376919,-0.01077 -8.4427584,-0.01015 -9.0351993,0.0014 l -1.0771653,0.02097 v 1.017182 1.017183 l 2.0598424,0.02011 c 1.1329132,0.01106 5.1892912,0.02011 9.0141732,0.02011 h 6.95433 z m 4e-6,-4.989663 0.02103,-1.03937 H 16.10292 7.0677164 v 1.015452 1.015451 l 0.207874,0.02392 c 0.1143307,0.01316 4.1707086,0.02392 9.0141726,0.02392 h 8.806299 z"
     id="path5"
     transform="matrix(20,0,0,20,0,-960)" /><path
     style="fill:#fcfcfc;fill-opacity:1;stroke-width:0.0755906"
     d="M 13.975,34.034645 C 9.1398358,29.261255 6.2690605,25.585091 4.4965975,21.897099 3.4729373,19.767153 3.1407637,18.510501 3.0843312,16.55433 2.9700057,12.591363 4.261611,9.2742428 6.9271844,6.6850576 8.4504999,5.2053964 9.8712261,4.3317914 11.792126,3.693604 13.315034,3.1876426 14.19424,3.0766158 16.327559,3.1208659 c 1.467865,0.030447 1.955023,0.068375 2.552035,0.198692 1.612959,0.3520792 2.962792,0.9211731 4.288909,1.8082179 3.217984,2.1525205 5.167375,5.3238512 5.676328,9.2344282 0.137156,1.053838 0.118443,2.918806 -0.03754,3.741733 -0.715043,3.77234 -3.349291,8.183045 -7.607045,12.737007 -1.777075,1.900705 -5.063192,5.140071 -5.214322,5.14014 -0.0216,9e-6 -0.926516,-0.875888 -2.010922,-1.946439 z m 10.499635,-11.953282 0.663611,-0.0089 -0.02109,-1.001574 -0.02109,-1.001575 -9.014173,-0.0192 -9.0141726,-0.0192 v 1.018304 1.018304 l 0.8503936,0.02192 c 0.7733444,0.01993 14.989445,0.01303 16.556525,-0.008 z m 0.659223,-6.018371 V 15.042519 H 16.100787 7.0677164 v 1.020473 1.020472 h 9.0330706 9.033071 z m -2.475591,-3.963961 2.475591,-0.0045 V 11.074015 10.053543 H 16.100787 7.0677164 v 1.019925 1.019925 L 12,12.112838 c 2.712756,0.0107 5.663622,0.01299 6.55748,0.0051 0.893858,-0.0079 2.739212,-0.0164 4.100787,-0.0189 z"
     id="path6"
     transform="matrix(20,0,0,20,0,-960)" /></svg>
