<?xml version="1.0" encoding="UTF-8" standalone="no"?>
<svg
   height="40"
   viewBox="0 -960 640 800"
   width="32"
   fill="#5f6368"
   version="1.1"
   id="svg1"
   sodipodi:docname="my-experience-marker.svg"
   inkscape:version="1.3.2 (091e20ef0f, 2023-11-25)"
   xmlns:inkscape="http://www.inkscape.org/namespaces/inkscape"
   xmlns:sodipodi="http://sodipodi.sourceforge.net/DTD/sodipodi-0.dtd"
   xmlns="http://www.w3.org/2000/svg"
   xmlns:svg="http://www.w3.org/2000/svg">
  <defs
     id="defs1" />
  <sodipodi:namedview
     id="namedview1"
     pagecolor="#ffffff"
     bordercolor="#000000"
     borderopacity="0.25"
     inkscape:showpageshadow="2"
     inkscape:pageopacity="0.0"
     inkscape:pagecheckerboard="0"
     inkscape:deskcolor="#d1d1d1"
     inkscape:zoom="13.229167"
     inkscape:cx="16.062992"
     inkscape:cy="19.9937"
     inkscape:window-width="2742"
     inkscape:window-height="1457"
     inkscape:window-x="0"
     inkscape:window-y="0"
     inkscape:window-maximized="1"
     inkscape:current-layer="svg1" />
  <path
     d="m 320.09,-570 q 28.91,0 49.41,-20.59 20.5,-20.59 20.5,-49.5 0,-28.91 -20.59,-49.41 -20.59,-20.5 -49.5,-20.5 -28.91,0 -49.41,20.59 -20.5,20.59 -20.5,49.5 0,28.91 20.59,49.41 20.59,20.5 49.5,20.5 z M 320,-239 Q 453,-360 516.5,-458.5 580,-557 580,-632 580,-749.79 504.71,-824.9 429.42,-900 320,-900 210.58,-900 135.29,-824.9 60,-749.79 60,-632 q 0,75 65,173.5 65,98.5 195,219.5 z m 0,79 Q 159,-297 79.5,-414.5 0,-532 0,-632 0,-782 96.5,-871 193,-960 320,-960 q 127,0 223.5,89 96.5,89 96.5,239 0,100 -79.5,217.5 Q 481,-297 320,-160 Z m 0,-480 z"
     id="path1" />
  <path
     style="fill:#fcfcfc;stroke-width:1.51181"
     d="m 279.3298,-279.18112 c -43.1345,-42.74448 -66.76188,-68.0701 -95.37832,-102.23384 -64.46464,-76.961 -102.738101,-143.67404 -118.500361,-206.55356 -3.29716,-13.15322 -3.59412,-17.35284 -3.52764,-49.88976 0.068,-32.85042 0.3864,-37.00852 4.23722,-55.1811 5.66492,-26.73354 11.35654,-43.28704 22.87154,-66.51968 34.620821,-69.85086 103.738161,-121.35925 181.934981,-135.58364 25.23928,-4.59115 72.05394,-4.59115 97.2932,0 50.88966,9.25708 96.22532,32.85112 133.2837,69.36488 38.2076,37.64608 59.95158,77.87938 71.32958,131.98254 5.35512,25.46388 6.90662,71.88838 3.12694,93.56526 -11.80516,67.70394 -53.56398,142.58358 -128.6667,230.7182 -18.0456,21.17688 -124.60262,129.25984 -127.43492,129.25984 -0.7066,0 -18.96284,-17.51812 -40.56922,-38.92914 z"
     id="path2"
     sodipodi:nodetypes="ssscssssssssss" />
  <path
     d="m 274.5,-588.80904 45.5,-27.5 45.5,27.5 -12,-52 40,-34.5 -52.5,-4.5 -21,-49 -21,49 -52.5,4.5 40,34.5 z m -94.5,140 v -320 q 0,-16.5 11.75,-28.25 11.75,-11.75 28.25,-11.75 h 200 q 16.5,0 28.25,11.75 11.75,11.75 11.75,28.25 v 320 l -140,-60 z m 40,-61 100,-43 100,43 v -259 H 220 Z m 0,-259 h 200 z"
     id="path1-5"
     style="stroke-width:0.5" />
</svg>
