<?xml version="1.0" encoding="UTF-8" standalone="no"?>
<svg
   height="40"
   viewBox="0 -960 640 800"
   width="32"
   fill="#5f6368"
   version="1.1"
   id="svg1"
   sodipodi:docname="note-marker.svg"
   inkscape:version="1.3.2 (091e20ef0f, 2023-11-25)"
   xml:space="preserve"
   xmlns:inkscape="http://www.inkscape.org/namespaces/inkscape"
   xmlns:sodipodi="http://sodipodi.sourceforge.net/DTD/sodipodi-0.dtd"
   xmlns="http://www.w3.org/2000/svg"
   xmlns:svg="http://www.w3.org/2000/svg"><defs
     id="defs1" /><sodipodi:namedview
     id="namedview1"
     pagecolor="#ffffff"
     bordercolor="#000000"
     borderopacity="0.25"
     inkscape:showpageshadow="2"
     inkscape:pageopacity="0.0"
     inkscape:pagecheckerboard="0"
     inkscape:deskcolor="#d1d1d1"
     inkscape:zoom="13.229167"
     inkscape:cx="16.025196"
     inkscape:cy="19.9937"
     inkscape:window-width="2742"
     inkscape:window-height="1457"
     inkscape:window-x="0"
     inkscape:window-y="0"
     inkscape:window-maximized="1"
     inkscape:current-layer="svg1" /><g
     id="g4"
     transform="translate(-160,-80)"><g
       id="g2"><path
         d="m 480.09,-490 q 28.91,0 49.41,-20.59 20.5,-20.59 20.5,-49.5 0,-28.91 -20.59,-49.41 -20.59,-20.5 -49.5,-20.5 -28.91,0 -49.41,20.59 -20.5,20.59 -20.5,49.5 0,28.91 20.59,49.41 20.59,20.5 49.5,20.5 z M 480,-159 Q 613,-280 676.5,-378.5 740,-477 740,-552 740,-669.79 664.71,-744.9 589.42,-820 480,-820 370.58,-820 295.29,-744.9 220,-669.79 220,-552 q 0,75 65,173.5 65,98.5 195,219.5 z m 0,79 Q 319,-217 239.5,-334.5 160,-452 160,-552 q 0,-150 96.5,-239 96.5,-89 223.5,-89 127,0 223.5,89 96.5,89 96.5,239 0,100 -79.5,217.5 Q 641,-217 480,-80 Z m 0,-480 z"
         id="path1" /><ellipse
         style="fill:#fcfcfc;fill-opacity:1;stroke-width:20"
         id="path2"
         cx="481.42322"
         cy="-552.1181"
         rx="82.618111"
         ry="86.379921" /></g><g
       style="fill:#5f6368"
       id="g3"
       transform="matrix(0.43453002,0,0,0.44930118,257.69104,-358.38031)"><path
         d="m 680,-320 q -50,0 -85,-35 -35,-35 -35,-85 0,-50 35,-85 35,-35 85,-35 50,0 85,35 35,35 35,85 0,50 -35,85 -35,35 -85,35 z m 0,-80 q 17,0 28.5,-11.5 Q 720,-423 720,-440 720,-457 708.5,-468.5 697,-480 680,-480 q -17,0 -28.5,11.5 -11.5,11.5 -11.5,28.5 0,17 11.5,28.5 Q 663,-400 680,-400 Z M 440,-40 v -116 q 0,-21 10,-39.5 10,-18.5 28,-29.5 32,-19 67.5,-31.5 Q 581,-269 618,-275 l 62,75 62,-75 q 37,6 72,18.5 35,12.5 67,31.5 18,11 28.5,29.5 10.5,18.5 10.5,39.5 v 116 z m 79,-80 h 123 l -54,-66 q -18,5 -35,13 -17,8 -34,17 z m 199,0 h 122 v -36 q -16,-10 -33,-17.5 -17,-7.5 -35,-12.5 z m -76,0 z m 76,0 z m -518,0 q -33,0 -56.5,-23.5 Q 120,-167 120,-200 v -560 q 0,-33 23.5,-56.5 Q 167,-840 200,-840 h 560 q 33,0 56.5,23.5 23.5,23.5 23.5,56.5 v 200 q -16,-20 -35,-38 -19,-18 -45,-24 V -760 H 200 v 560 h 166 q -3,11 -4.5,22 -1.5,11 -1.5,22 v 36 z m 80,-480 h 280 q 26,-20 57,-30 31,-10 63,-10 v -40 H 280 Z m 0,160 h 200 q 0,-21 4.5,-41 4.5,-20 12.5,-39 H 280 Z m 0,160 h 138 q 11,-9 23.5,-16 12.5,-7 25.5,-13 v -51 H 280 Z m -80,80 v -560 137 -17 z m 480,-240 z"
         id="path1-5" /></g></g><path
     style="fill:#fcfcfc;stroke-width:1.51181"
     d="m 279.71596,-279.18112 c -43.1345,-42.74448 -66.76188,-68.0701 -95.37832,-102.23384 -64.46464,-76.961 -102.7381,-143.67404 -118.50036,-206.55356 -3.29716,-13.15322 -3.59412,-17.35284 -3.52764,-49.88976 0.068,-32.85042 0.3864,-37.00852 4.23722,-55.1811 5.66492,-26.73354 11.35654,-43.28704 22.87154,-66.51968 34.62082,-69.85086 103.73816,-121.35925 181.93498,-135.58364 25.23928,-4.59115 72.05394,-4.59115 97.2932,0 50.88966,9.25708 96.22532,32.85112 133.2837,69.36488 38.2076,37.64608 59.95158,77.87938 71.32958,131.98254 5.35512,25.46388 6.90662,71.88838 3.12694,93.56526 -11.80516,67.70394 -53.56398,142.58358 -128.6667,230.7182 -18.0456,21.17688 -124.60262,129.25984 -127.43492,129.25984 -0.7066,0 -18.96284,-17.51812 -40.56922,-38.92914 z m 218.40732,-207.87402 c -0.5448,-36.05138 -1.4282,-39.51766 -12.56352,-49.29454 -10.49172,-9.21186 -42.65684,-22.7437 -59.733,-25.12964 l -6.80316,-0.9506 -12.03152,15.30464 c -6.61734,8.41754 -12.52614,15.61034 -13.13068,15.98394 -0.6046,0.3736 -6.53862,-6.0375 -13.18688,-14.24694 l -12.0877,-14.92628 10.35848,-10.58678 c 10.30832,-10.5355 10.40486,-10.59054 19.92706,-11.36346 17.83854,-1.448 34.01364,-12.97272 41.9496,-29.88918 3.42078,-7.2918 3.90188,-10.27778 3.89804,-24.19252 -0.005,-18.84452 -2.52824,-25.80024 -13.68466,-37.72734 -10.35664,-11.07208 -20.55344,-15.59486 -35.59368,-15.78752 l -12.05486,-0.154 -7.75726,-7.12814 c -4.2665,-3.92048 -11.3836,-9.02284 -15.81582,-11.33858 -4.43218,-2.31574 -8.06014,-4.6369 -8.0621,-5.15814 -0.011,-2.90502 29.1458,-11.80096 38.92554,-11.87644 3.17598,-0.024 3.40156,-0.678 3.40156,-9.85302 v -9.82678 h -87.68504 -87.68502 v 18.86632 18.86636 l 30.21774,0.4092 30.21772,0.4092 -8.22924,6.36526 c -4.52606,3.50088 -11.49098,11.12542 -15.47756,16.94342 l -7.24836,10.57818 -14.74016,0.064 -14.74014,0.064 v 18.89764 18.89764 h 9.70644 9.70642 l 1.0782,10.20472 c 0.593,5.6126 1.9412,13.09608 2.99598,16.62992 l 1.9178,6.4252 h -12.70244 -12.70242 v 18.89764 18.89764 h 25.85086 25.85088 l 8.54282,5.27292 c 9.51916,5.87556 23.83956,11.357 29.67042,11.357 5.59934,0 4.67602,2.23306 -2.714,6.5639 -7.19856,4.21866 -13.9014,12.82268 -16.18074,20.7703 -0.8124,2.83238 -1.477,18.5905 -1.477,35.01802 v 29.86826 H 393.4303 498.6087 Z m -243.0951,-17.38582 c 0.0198,-7.27558 0.6286,-15.77952 1.3526,-18.89764 l 1.3166,-5.66928 H 221.57312 185.44888 V -653.7323 -778.4567 h 120.94486 120.94488 l 0.006,30.61418 0.006,30.61416 7.17544,2.89832 c 4.86544,1.9652 10.70398,6.56002 18.13606,14.27262 l 10.96064,11.37434 v -47.67016 c 0,-51.56602 -0.6824,-57.17592 -8.14526,-66.96022 -2.12558,-2.78678 -7.41886,-6.838 -11.76286,-9.0027 l -7.89816,-3.93582 h -128.7374 c -92.22122,0 -130.19508,0.488 -133.8764,1.7206 -7.8242,2.61964 -14.45468,8.2098 -19.08952,16.09442 l -4.19118,7.12986 -0.4098,134.44296 c -0.4614,151.35966 -1.0248,143.27472 10.7914,154.87144 9.96954,9.78436 14.1421,10.56238 57.27202,10.67894 l 37.41732,0.102 z"
     id="path3" /><path
     style="fill:#fcfcfc;fill-opacity:1;stroke-width:0.0755906"
     d="M 14.173228,34.216975 C 11.96044,32.020863 10.998924,31.014384 9.9779525,29.825514 9.7700785,29.583455 9.5364778,29.313218 9.45884,29.224987 8.5305735,28.170061 7.0806175,26.262113 6.3497631,25.133858 5.6251076,24.015172 5.576619,23.938314 5.3721379,23.584251 5.172297,23.238224 4.1611105,21.191966 4.0367282,20.881889 3.9992048,20.788346 3.9379998,20.635275 3.9007171,20.541732 3.6209293,19.839737 3.4529929,19.273517 3.251279,18.352068 3.0892115,17.611726 3.0876488,14.700711 3.2488091,13.750968 3.3783836,12.987364 3.6701063,11.867802 3.8675527,11.376378 4.1957791,10.559455 4.6384618,9.6330839 4.8789764,9.2598423 4.959348,9.1351179 5.0485119,8.982047 5.0771183,8.9196848 5.1057247,8.8573226 5.150864,8.7892911 5.1774278,8.7685037 5.2039916,8.7477163 5.3410086,8.5613683 5.4819101,8.3543971 5.8610033,7.7975442 5.9717831,7.671468 6.8449505,6.8031494 7.6404174,6.0120999 7.7836137,5.8881091 8.4283462,5.4321178 8.6154329,5.2997995 8.7855116,5.1714744 8.806299,5.1469506 8.89212,5.0457048 11.074854,3.912529 11.225197,3.8911696 c 0.02079,-0.00295 0.360944,-0.1118672 0.755905,-0.2420308 1.331144,-0.4386932 2.097139,-0.5454559 3.954883,-0.5512228 1.225622,-0.0038 2.12674,0.059298 2.810471,0.1968076 0.433179,0.08712 1.588765,0.4216669 1.825597,0.5285183 0.131008,0.059107 0.272818,0.1074667 0.315134,0.1074667 0.04232,0 0.173239,0.049702 0.290939,0.1104486 0.117699,0.060747 0.401086,0.1984951 0.629747,0.3061074 0.550506,0.2590783 1.415534,0.7801374 1.851969,1.1155538 2.483611,1.9087469 4.004647,4.1043095 4.754777,6.8633496 0.266076,0.978649 0.377748,1.590628 0.461189,2.527375 0.04056,0.45532 0.04757,2.508475 0.0093,2.72126 -0.01496,0.08315 -0.0698,0.389291 -0.121879,0.680315 -0.273681,1.529471 -1.075786,3.577166 -2.102285,5.366929 -0.566622,0.987939 -2.536027,3.873713 -2.811491,4.119685 -0.02328,0.02079 -0.160013,0.190866 -0.303852,0.377952 -0.617117,0.802664 -1.982391,2.371585 -2.330791,2.678457 -0.09753,0.0859 -0.845876,0.853448 -1.662992,1.705654 -1.362281,1.420782 -3.470961,3.478098 -3.563539,3.476739 -0.02126,-3.12e-4 -0.838033,-0.793914 -1.815041,-1.763559 z M 24.907086,23.77587 c 0,-2.164241 -0.137666,-2.443464 -1.548231,-3.140234 -0.642435,-0.317342 -1.967383,-0.754488 -2.288729,-0.755131 -0.104758,-2.09e-4 -0.09308,-0.0131 -0.833201,0.91916 l -0.519837,0.654783 -0.220749,-0.206835 c -0.121412,-0.113759 -0.424843,-0.469379 -0.674292,-0.790264 l -0.453544,-0.58343 -0.340157,0.04667 c -0.842435,0.115588 -2.414622,0.767926 -2.945093,1.221989 -0.596157,0.510288 -0.640235,0.674647 -0.670015,2.498364 l -0.02623,1.606299 h 5.260039 5.260039 z M 12.757867,22.620472 c 0.02393,-0.446929 0.06668,-0.872126 0.095,-0.944882 0.04817,-0.12375 -0.06606,-0.132283 -1.770766,-0.132283 H 9.2598423 V 15.307086 9.0708659 h 6.0472437 6.047244 v 1.5376411 1.537641 l 0.302362,0.09059 c 0.1663,0.04982 0.302363,0.123241 0.302363,0.163146 0,0.03991 0.03052,0.07256 0.06782,0.07256 0.0373,0 0.30943,0.24401 0.604724,0.542246 l 0.5369,0.542247 V 11.13443 c 0,-2.6133271 -0.02178,-2.7875687 -0.412492,-3.2998181 C 22.650643,7.696465 22.398108,7.4929126 22.194821,7.3822702 l -0.369612,-0.201168 -6.414967,4.215e-4 C 11.120981,7.1818056 8.8995718,7.2085207 8.7064606,7.2621446 8.3736502,7.3545608 7.9038607,7.7523022 7.6551937,8.1521864 L 7.4834644,8.4283462 v 6.8409448 6.840945 l 0.1674715,0.313137 c 0.2120822,0.396551 0.7088756,0.824849 1.0675536,0.920364 0.1522322,0.04054 1.1135797,0.07722 2.1363275,0.08152 l 1.859542,0.0078 z m 1.564118,-3.032074 c 0.164246,-0.118979 0.402061,-0.259169 0.528479,-0.311533 0.228569,-0.09468 0.229851,-0.09853 0.229851,-0.690761 v -0.595553 l -1.114961,-3.07e-4 c -0.613228,-1.69e-4 -1.548661,-0.02243 -2.07874,-0.04946 l -0.96378,-0.04915 v 0.956547 0.956547 h 1.550261 1.550261 z m 5.655314,-0.699184 c 0.916846,-0.129842 1.597618,-0.611873 2.033823,-1.440081 0.195608,-0.371393 0.212499,-0.469561 0.212499,-1.23496 0,-0.757264 -0.01886,-0.869895 -0.211218,-1.261613 -0.272833,-0.555589 -0.902968,-1.136704 -1.432004,-1.320605 -0.61547,-0.213946 -1.492167,-0.18104 -2.032473,0.07629 -0.500474,0.238358 -1.065864,0.811633 -1.29973,1.317856 -0.137655,0.297966 -0.164732,0.493253 -0.164732,1.188074 0,0.730496 0.02188,0.872814 0.180138,1.171653 0.41564,0.78486 0.988203,1.266156 1.733012,1.456766 0.218,0.05579 0.369952,0.130468 0.33767,0.165951 -0.03228,0.03548 -0.015,0.03932 0.0384,0.0085 0.0534,-0.03079 0.325478,-0.08833 0.604618,-0.127859 z m -4.594622,-3.000531 c 0,-0.196825 0.06803,-0.603364 0.151181,-0.903419 0.08315,-0.300055 0.151181,-0.562994 0.151181,-0.584307 0,-0.02131 -1.071496,-0.03875 -2.381102,-0.03875 h -2.381103 v 0.941428 0.941429 l 0.510237,0.02235 c 0.280629,0.01229 1.284094,0.01263 2.229921,7.43e-4 l 1.719685,-0.02161 z m 2.116535,-3.535844 c 0.483503,-0.295765 1.141631,-0.51812 1.75748,-0.593783 l 0.434646,-0.0534 V 11.219143 10.73263 l -4.365354,0.01951 -4.365354,0.01951 -0.02121,0.924189 -0.02121,0.92419 1.306249,0.02069 c 0.718438,0.01138 2.105619,0.0085 3.082627,-0.0064 l 1.776378,-0.02713 z"
     id="path4"
     transform="matrix(20,0,0,20,0,-960)" /><path
     style="fill:#fcfcfc;fill-opacity:1;stroke-width:0.0755906"
     d="M 14.126453,34.185266 C 7.9318781,28.087313 4.5690633,23.324824 3.3851669,18.973228 3.2121439,18.337255 3.1846171,18.061137 3.1445051,16.559182 3.0939694,14.666923 3.1579598,13.924902 3.4827938,12.636437 3.9397599,10.823868 4.7468516,9.2069945 5.9110878,7.7717561 6.3619629,7.2159295 7.7039736,5.8998077 8.0318235,5.6919315 8.145974,5.6195534 8.3626427,5.4635464 8.5133096,5.3452493 9.033113,4.9371222 10.849669,4.0043591 11.619119,3.7504816 c 1.638629,-0.54066 2.362503,-0.6487709 4.366746,-0.6521749 1.630173,-0.00277 2.432429,0.085333 3.541905,0.3889637 0.318624,0.087198 0.647348,0.1765327 0.730497,0.1985218 0.08315,0.021989 0.185197,0.064393 0.226772,0.09423 0.04157,0.029837 0.177638,0.078357 0.302362,0.1078203 0.357761,0.084514 1.765336,0.811296 2.39775,1.2380448 2.911804,1.9648653 4.799482,4.7792348 5.459901,8.1402537 0.228706,1.163935 0.275785,1.704573 0.271059,3.112726 -0.0052,1.554225 -0.179308,2.454863 -0.815631,4.219558 -0.299993,0.831961 -1.328595,2.916025 -1.79079,3.628346 -2.03507,3.136383 -3.184,4.581468 -6.131308,7.711751 -0.08551,0.09082 -0.187559,0.179242 -0.226772,0.196491 -0.03921,0.01725 -0.5135,0.486791 -1.053973,1.043422 -1.050727,1.082143 -2.835088,2.803032 -2.905456,2.802106 -0.02342,-3.08e-4 -0.862994,-0.808182 -1.865728,-1.795275 z M 24.907086,23.824743 c 0,-2.039433 -0.152541,-2.432433 -1.163601,-2.99785 -0.691912,-0.386939 -2.252545,-0.93941 -2.670261,-0.945283 -0.05067,-7.13e-4 -0.38063,0.357334 -0.73324,0.795659 l -0.641111,0.796955 -0.211641,-0.221806 c -0.116403,-0.121993 -0.415736,-0.480637 -0.665185,-0.796986 l -0.453544,-0.57518 -0.334855,0.0445 c -0.852624,0.113299 -2.462657,0.786739 -2.991952,1.251467 -0.554204,0.486597 -0.599027,0.662387 -0.628458,2.464727 l -0.02623,1.606299 h 5.260039 5.260039 z M 12.742791,22.847244 c 0.0032,-0.322205 0.01865,-0.653859 0.03437,-0.737008 0.01572,-0.08315 0.03863,-0.236221 0.05091,-0.340158 l 0.02232,-0.188976 -1.795275,-0.02027 -1.7952757,-0.02027 V 15.305718 9.0708659 h 6.0472437 6.047244 v 1.5376411 1.537641 l 0.306286,0.09177 c 0.218157,0.06536 0.479158,0.265803 0.907087,0.696617 l 0.6008,0.604851 v -2.371719 c 0,-2.6829992 -0.03677,-2.9362369 -0.494851,-3.4079064 C 22.525392,7.6070981 22.269525,7.4135465 22.105058,7.3296421 21.810967,7.1796077 21.697758,7.1774337 15.249471,7.197993 9.2987667,7.2169658 8.6719585,7.2305251 8.4661415,7.3447316 8.2142501,7.4845045 7.8521532,7.8552832 7.6293613,8.2015746 7.487971,8.4213415 7.4834644,8.6396571 7.4834644,15.269291 c 0,6.529773 0.00641,6.852979 0.140913,7.105512 0.275938,0.518079 0.6993387,0.8609 1.2197169,0.987585 0.1247244,0.03036 1.0516535,0.05869 2.0598427,0.06294 l 1.833071,0.0077 z m 1.579194,-3.258846 c 0.164246,-0.118979 0.402061,-0.259169 0.528479,-0.311533 0.228569,-0.09468 0.229851,-0.09853 0.229851,-0.690761 v -0.595553 l -1.114961,-3.07e-4 c -0.613228,-1.69e-4 -1.548661,-0.02243 -2.07874,-0.04946 l -0.96378,-0.04915 v 0.956547 0.956547 h 1.550261 1.550261 z m 5.810246,-0.726877 c 0.752481,-0.09939 1.541961,-0.712203 1.886716,-1.46451 0.255164,-0.556806 0.315257,-1.460698 0.137715,-2.071422 -0.346456,-1.191766 -1.667507,-2.02489 -2.881148,-1.817002 -0.645531,0.110574 -0.989628,0.288719 -1.458754,0.755221 -0.545707,0.542655 -0.716111,0.949441 -0.75598,1.804652 -0.02778,0.595855 -0.008,0.745166 0.150945,1.138633 0.230831,0.571478 0.524914,0.944382 1.005597,1.275118 0.398402,0.27412 1.080519,0.493058 1.398426,0.448848 0.103937,-0.01445 0.336354,-0.04575 0.516483,-0.06954 z m -4.749554,-2.970127 c 0,-0.198316 0.06803,-0.606075 0.151181,-0.90613 0.08315,-0.300055 0.151181,-0.562994 0.151181,-0.584307 0,-0.02131 -1.071496,-0.03875 -2.381102,-0.03875 h -2.381103 v 0.944882 0.944882 h 2.229922 2.229921 z m 2.105141,-3.530322 c 0.491786,-0.302286 1.161508,-0.531766 1.775982,-0.608539 l 0.427538,-0.05342 V 11.215872 10.73263 l -4.365354,0.01951 -4.365354,0.01951 -0.02122,0.925985 -0.02122,0.925984 h 3.071248 3.071248 z"
     id="path5"
     transform="matrix(20,0,0,20,0,-960)" /><path
     style="fill:#fcfcfc;fill-opacity:1;stroke-width:0.0755906"
     d="M 13.973877,34.034645 C 10.744971,30.839141 8.6686081,28.464853 6.8801782,25.923115 5.0352301,23.301052 3.6733079,20.4866 3.2567486,18.435191 3.0908725,17.618309 3.0864875,14.656218 3.2497679,13.719685 3.728734,10.972463 4.7974014,8.8709274 6.7228529,6.889859 7.7184762,5.865477 8.6446575,5.1817292 9.96925,4.4932259 c 2.048199,-1.064623 3.450286,-1.3905006 6.001425,-1.3948707 2.989934,-0.00512 5.034458,0.5749381 7.235624,2.0528471 3.13063,2.1019706 5.013841,5.1132937 5.594894,8.9464347 0.17285,1.140277 0.1531,3.219716 -0.04009,4.2208 -0.691658,3.584094 -3.411895,8.083711 -7.593314,12.560302 -1.313485,1.406206 -5.076033,5.102362 -5.194013,5.102362 -0.0182,0 -0.918158,-0.875905 -1.999899,-1.946456 z M 24.893974,23.67874 c -0.02903,-1.729864 -0.09459,-2.015389 -0.562888,-2.451605 -0.450338,-0.419485 -2.120379,-1.133431 -3.062105,-1.309057 -0.29119,-0.05431 -0.273842,-0.07154 -1.555133,1.545366 -0.03462,0.04369 -0.3296,-0.287081 -0.891801,-1.000001 -0.249449,-0.316323 -0.504567,-0.576845 -0.566929,-0.578939 -0.293859,-0.0099 -1.621435,0.41403 -2.247226,0.717545 -0.831723,0.403395 -1.201035,0.709252 -1.410355,1.168029 -0.13688,0.300003 -0.158601,0.525314 -0.184007,1.908662 l -0.02881,1.568503 h 5.267786 5.267787 z M 12.754731,22.620472 c 0.02043,-0.446929 0.05031,-0.863622 0.0664,-0.925984 0.02529,-0.09801 -0.21416,-0.116134 -1.766016,-0.133652 L 9.2598423,21.54057 V 15.305718 9.0708659 h 6.0472437 6.047244 v 1.5376411 1.537641 l 0.316127,0.09471 c 0.231018,0.06921 0.4767,0.25768 0.912567,0.700038 l 0.596441,0.605324 -0.02506,-2.521144 C 23.133451,8.9173826 23.10959,8.4605501 23.0089,8.2393699 22.845516,7.8804721 22.265151,7.3618024 21.909741,7.2570565 21.700044,7.1952551 19.814732,7.1779739 15.152516,7.1951184 8.9765922,7.2178294 8.6761005,7.225279 8.4627521,7.3609663 8.0994668,7.5920121 7.8204923,7.8793533 7.6466203,8.2015746 L 7.4834644,8.5039368 v 6.8031492 c 0,6.492896 0.00643,6.815215 0.140913,7.067717 0.2868104,0.538492 0.7206369,0.879167 1.2575121,0.987497 0.1455118,0.02936 1.0680716,0.0573 2.0501325,0.06208 l 1.785566,0.0087 z m 1.586365,-3.03234 c 0.177909,-0.119125 0.417014,-0.27298 0.531345,-0.3419 0.197063,-0.118792 0.207874,-0.154699 0.207874,-0.690495 v -0.565186 l -1.417323,-0.0075 c -0.779528,-0.0041 -1.714961,-0.0217 -2.07874,-0.03902 l -0.661418,-0.03148 v 0.946104 0.946103 h 1.547396 1.547397 z m 6.233686,-0.853463 c 0.553512,-0.207095 1.162063,-0.773388 1.440603,-1.340567 0.187622,-0.382047 0.208065,-0.502596 0.206502,-1.217724 -0.0014,-0.643467 -0.03162,-0.858088 -0.159619,-1.133859 -0.249257,-0.537013 -0.732652,-1.023747 -1.288477,-1.297379 -0.43848,-0.215863 -0.570367,-0.244668 -1.120248,-0.244668 -0.549881,0 -0.681769,0.02881 -1.120248,0.244668 -0.550356,0.270939 -0.99933,0.723041 -1.276216,1.285107 -0.147693,0.29981 -0.173615,0.470935 -0.173615,1.146131 0,0.715009 0.02084,0.836146 0.210241,1.221819 0.330845,0.673711 0.958905,1.220296 1.641728,1.428753 0.39303,0.119988 1.192255,0.075 1.639349,-0.09228 z m -5.192105,-2.843275 c 0,-0.198316 0.06803,-0.606075 0.151181,-0.90613 0.08315,-0.300055 0.151181,-0.562994 0.151181,-0.584307 0,-0.02131 -1.071496,-0.03875 -2.381102,-0.03875 h -2.381103 v 0.944882 0.944882 h 2.229922 2.229921 z m 2.116535,-3.536814 c 0.468561,-0.298856 1.120191,-0.521535 1.760177,-0.601496 l 0.431949,-0.05397 v -0.482628 -0.482629 h -3.465297 c -1.905914,0 -3.878827,0.02224 -4.384252,0.04941 l -0.918955,0.04941 v 0.895471 0.89547 l 3.080315,-0.0019 3.080315,-0.0019 z"
     id="path6"
     transform="matrix(20,0,0,20,0,-960)" /><path
     style="fill:#fcfcfc;fill-opacity:1;stroke-width:0.0755906"
     d="m 16.214173,22.976808 v -0.380672 l 0.619623,-0.299643 c 0.340793,-0.164804 0.673518,-0.299643 0.739389,-0.299643 0.09773,0 0.846717,0.872484 1.082539,1.261032 0.04906,0.08083 -0.17533,0.0996 -1.190551,0.0996 h -1.251 z"
     id="path7"
     transform="matrix(20,0,0,20,0,-960)" /><path
     style="fill:#fcfcfc;fill-opacity:1;stroke-width:0.0755906"
     d="m 20.688627,23.221247 c 0.05433,-0.07493 0.299774,-0.395448 0.545441,-0.712269 l 0.446666,-0.576036 0.38483,0.150551 c 0.211656,0.0828 0.529396,0.234679 0.706089,0.337503 0.309615,0.180175 0.32126,0.200535 0.32126,0.561717 v 0.374767 h -1.251531 c -1.191897,0 -1.246823,-0.0065 -1.152755,-0.136233 z"
     id="path8"
     transform="matrix(20,0,0,20,0,-960)" /><path
     style="fill:#fcfcfc;fill-opacity:1;stroke-width:0.0755906"
     d="m 19.341981,16.974846 c -0.326858,-0.142256 -0.482139,-0.395095 -0.482139,-0.785052 0,-0.617158 0.676135,-1.048665 1.171654,-0.747746 0.123063,0.07474 0.155728,0.188666 0.175629,0.612582 0.03287,0.700123 -0.01332,0.84581 -0.299839,0.94569 -0.289073,0.100771 -0.273638,0.101467 -0.565305,-0.02547 z"
     id="path9"
     transform="matrix(20,0,0,20,0,-960)" /></svg>
