<?xml version="1.0" encoding="UTF-8" standalone="no"?>
<svg
   height="40"
   viewBox="0 -960 640 800"
   width="32"
   fill="#5f6368"
   version="1.1"
   id="svg1"
   sodipodi:docname="note-marker.svg"
   inkscape:version="1.3.2 (091e20ef0f, 2023-11-25)"
   xml:space="preserve"
   xmlns:inkscape="http://www.inkscape.org/namespaces/inkscape"
   xmlns:sodipodi="http://sodipodi.sourceforge.net/DTD/sodipodi-0.dtd"
   xmlns="http://www.w3.org/2000/svg"
   xmlns:svg="http://www.w3.org/2000/svg"><defs
     id="defs1" /><sodipodi:namedview
     id="namedview1"
     pagecolor="#ffffff"
     bordercolor="#000000"
     borderopacity="0.25"
     inkscape:showpageshadow="2"
     inkscape:pageopacity="0.0"
     inkscape:pagecheckerboard="0"
     inkscape:deskcolor="#d1d1d1"
     inkscape:zoom="13.229167"
     inkscape:cx="16.025196"
     inkscape:cy="19.9937"
     inkscape:window-width="2742"
     inkscape:window-height="1457"
     inkscape:window-x="0"
     inkscape:window-y="0"
     inkscape:window-maximized="1"
     inkscape:current-layer="svg1" /><g
     id="g4"
     transform="translate(-160,-80)"><g
       id="g2"><path
         d="m 480.09,-490 q 28.91,0 49.41,-20.59 20.5,-20.59 20.5,-49.5 0,-28.91 -20.59,-49.41 -20.59,-20.5 -49.5,-20.5 -28.91,0 -49.41,20.59 -20.5,20.59 -20.5,49.5 0,28.91 20.59,49.41 20.59,20.5 49.5,20.5 z M 480,-159 Q 613,-280 676.5,-378.5 740,-477 740,-552 740,-669.79 664.71,-744.9 589.42,-820 480,-820 370.58,-820 295.29,-744.9 220,-669.79 220,-552 q 0,75 65,173.5 65,98.5 195,219.5 z m 0,79 Q 319,-217 239.5,-334.5 160,-452 160,-552 q 0,-150 96.5,-239 96.5,-89 223.5,-89 127,0 223.5,89 96.5,89 96.5,239 0,100 -79.5,217.5 Q 641,-217 480,-80 Z m 0,-480 z"
         id="path1" /><ellipse
         style="fill:#fcfcfc;fill-opacity:1;stroke-width:20"
         id="path2"
         cx="481.42322"
         cy="-552.1181"
         rx="82.618111"
         ry="86.379921" /></g><g
       style="fill:#5f6368"
       id="g3"
       transform="matrix(0.43453002,0,0,0.44930118,257.69104,-358.38031)"><path
         d="m 680,-320 q -50,0 -85,-35 -35,-35 -35,-85 0,-50 35,-85 35,-35 85,-35 50,0 85,35 35,35 35,85 0,50 -35,85 -35,35 -85,35 z m 0,-80 q 17,0 28.5,-11.5 Q 720,-423 720,-440 720,-457 708.5,-468.5 697,-480 680,-480 q -17,0 -28.5,11.5 -11.5,11.5 -11.5,28.5 0,17 11.5,28.5 Q 663,-400 680,-400 Z M 440,-40 v -116 q 0,-21 10,-39.5 10,-18.5 28,-29.5 32,-19 67.5,-31.5 Q 581,-269 618,-275 l 62,75 62,-75 q 37,6 72,18.5 35,12.5 67,31.5 18,11 28.5,29.5 10.5,18.5 10.5,39.5 v 116 z m 79,-80 h 123 l -54,-66 q -18,5 -35,13 -17,8 -34,17 z m 199,0 h 122 v -36 q -16,-10 -33,-17.5 -17,-7.5 -35,-12.5 z m -76,0 z m 76,0 z m -518,0 q -33,0 -56.5,-23.5 Q 120,-167 120,-200 v -560 q 0,-33 23.5,-56.5 Q 167,-840 200,-840 h 560 q 33,0 56.5,23.5 23.5,23.5 23.5,56.5 v 200 q -16,-20 -35,-38 -19,-18 -45,-24 V -760 H 200 v 560 h 166 q -3,11 -4.5,22 -1.5,11 -1.5,22 v 36 z m 80,-480 h 280 q 26,-20 57,-30 31,-10 63,-10 v -40 H 280 Z m 0,160 h 200 q 0,-21 4.5,-41 4.5,-20 12.5,-39 H 280 Z m 0,160 h 138 q 11,-9 23.5,-16 12.5,-7 25.5,-13 v -51 H 280 Z m -80,80 v -560 137 -17 z m 480,-240 z"
         id="path1-5" /></g></g><path
     style="fill:#fcfcfc;stroke-width:1.51181"
     d="m 279.71596,-279.18112 c -43.1345,-42.74448 -66.76188,-68.0701 -95.37832,-102.23384 -64.46464,-76.961 -102.7381,-143.67404 -118.50036,-206.55356 -3.29716,-13.15322 -3.59412,-17.35284 -3.52764,-49.88976 0.068,-32.85042 0.3864,-37.00852 4.23722,-55.1811 5.66492,-26.73354 11.35654,-43.28704 22.87154,-66.51968 34.62082,-69.85086 103.73816,-121.35925 181.93498,-135.58364 25.23928,-4.59115 72.05394,-4.59115 97.2932,0 50.88966,9.25708 96.22532,32.85112 133.2837,69.36488 38.2076,37.64608 59.95158,77.87938 71.32958,131.98254 5.35512,25.46388 6.90662,71.88838 3.12694,93.56526 -11.80516,67.70394 -53.56398,142.58358 -128.6667,230.7182 -18.0456,21.17688 -124.60262,129.25984 -127.43492,129.25984 -0.7066,0 -18.96284,-17.51812 -40.56922,-38.92914 z m 218.40732,-207.87402 c -0.5448,-36.05138 -1.4282,-39.51766 -12.56352,-49.29454 -10.49172,-9.21186 -42.65684,-22.7437 -59.733,-25.12964 l -6.80316,-0.9506 -12.03152,15.30464 c -6.61734,8.41754 -12.52614,15.61034 -13.13068,15.98394 -0.6046,0.3736 -6.53862,-6.0375 -13.18688,-14.24694 l -12.0877,-14.92628 10.35848,-10.58678 c 10.30832,-10.5355 10.40486,-10.59054 19.92706,-11.36346 17.83854,-1.448 34.01364,-12.97272 41.9496,-29.88918 3.42078,-7.2918 3.90188,-10.27778 3.89804,-24.19252 -0.005,-18.84452 -2.52824,-25.80024 -13.68466,-37.72734 -10.35664,-11.07208 -20.55344,-15.59486 -35.59368,-15.78752 l -12.05486,-0.154 -7.75726,-7.12814 c -4.2665,-3.92048 -11.3836,-9.02284 -15.81582,-11.33858 -4.43218,-2.31574 -8.06014,-4.6369 -8.0621,-5.15814 -0.011,-2.90502 29.1458,-11.80096 38.92554,-11.87644 3.17598,-0.024 3.40156,-0.678 3.40156,-9.85302 v -9.82678 h -87.68504 -87.68502 v 18.86632 18.86636 l 30.21774,0.4092 30.21772,0.4092 -8.22924,6.36526 c -4.52606,3.50088 -11.49098,11.12542 -15.47756,16.94342 l -7.24836,10.57818 -14.74016,0.064 -14.74014,0.064 v 18.89764 18.89764 h 9.70644 9.70642 l 1.0782,10.20472 c 0.593,5.6126 1.9412,13.09608 2.99598,16.62992 l 1.9178,6.4252 h -12.70244 -12.70242 v 18.89764 18.89764 h 25.85086 25.85088 l 8.54282,5.27292 c 9.51916,5.87556 23.83956,11.357 29.67042,11.357 5.59934,0 4.67602,2.23306 -2.714,6.5639 -7.19856,4.21866 -13.9014,12.82268 -16.18074,20.7703 -0.8124,2.83238 -1.477,18.5905 -1.477,35.01802 v 29.86826 H 393.4303 498.6087 Z m -243.0951,-17.38582 c 0.0198,-7.27558 0.6286,-15.77952 1.3526,-18.89764 l 1.3166,-5.66928 H 221.57312 185.44888 V -653.7323 -778.4567 h 120.94486 120.94488 l 0.006,30.61418 0.006,30.61416 7.17544,2.89832 c 4.86544,1.9652 10.70398,6.56002 18.13606,14.27262 l 10.96064,11.37434 v -47.67016 c 0,-51.56602 -0.6824,-57.17592 -8.14526,-66.96022 -2.12558,-2.78678 -7.41886,-6.838 -11.76286,-9.0027 l -7.89816,-3.93582 h -128.7374 c -92.22122,0 -130.19508,0.488 -133.8764,1.7206 -7.8242,2.61964 -14.45468,8.2098 -19.08952,16.09442 l -4.19118,7.12986 -0.4098,134.44296 c -0.4614,151.35966 -1.0248,143.27472 10.7914,154.87144 9.96954,9.78436 14.1421,10.56238 57.27202,10.67894 l 37.41732,0.102 z"
     id="path3" /></svg>
